<svg width="21" height="21" viewBox="0 0 21 21" fill="none" xmlns="http://www.w3.org/2000/svg">
<g clip-path="url(#clip0_11_2)">
<path d="M20.4617 10.2802C20.4616 8.39177 19.9551 6.53987 18.9978 4.92768C18.0405 3.31549 16.6694 2.00532 15.035 1.14091C13.4005 0.276496 11.5658 -0.10875 9.73227 0.0274384C7.8987 0.163627 6.13707 0.815988 4.64067 1.91294C3.14428 3.0099 1.97093 4.50906 1.24938 6.24595C0.527827 7.98283 0.285947 9.89031 0.55028 11.7591C0.814613 13.6279 1.57494 15.3858 2.74785 16.8399C3.92075 18.2941 5.46091 19.3882 7.19933 20.0024C7.43798 19.825 7.70708 19.606 7.70708 19.2383C7.70708 18.6724 7.70708 17.2198 7.70708 17.2198C7.35827 17.2724 7.00606 17.2977 6.65351 17.2954C5.09218 17.2954 4.59713 16.2783 4.36864 15.7072C4.14932 15.1375 3.75309 14.6581 3.24144 14.3433C2.98756 14.1712 2.9241 13.9703 3.22367 13.913C4.60728 13.6522 4.96017 15.5142 5.88173 15.8115C6.5418 16.0227 7.3872 15.9315 7.80863 15.6524C7.89343 15.1206 8.17896 14.6446 8.60326 14.3276C6.24731 14.0825 4.85354 13.2584 4.13254 11.9179L4.05637 11.7693L3.87612 11.3442L3.82281 11.193C3.59048 10.4412 3.47984 9.65531 3.49531 8.86672C3.49531 7.32285 3.96752 6.7413 4.59966 5.91721C4.1173 4.15688 4.7723 2.95465 4.7723 2.95465C4.7723 2.95465 5.7878 2.7382 7.70962 4.14385C8.7505 3.68747 11.5177 3.65096 12.843 4.04214C13.6477 3.49709 15.1278 2.72516 15.7193 2.94161C15.8793 3.2024 16.2271 3.98476 15.9301 5.67728C16.1306 6.05021 17.1817 6.843 17.1867 9.08317C17.1857 9.79612 17.1004 10.5063 16.9329 11.1982L16.8465 11.5007C16.8465 11.5007 16.7958 11.6441 16.7425 11.7797L16.679 11.9284C15.9834 13.4931 14.5541 14.0747 12.2438 14.3172C12.9927 14.7997 13.206 15.4021 13.206 17.0372C13.206 18.6724 13.1857 18.8914 13.1908 19.267C13.2143 19.4235 13.2723 19.5725 13.3603 19.7027C13.4482 19.8328 13.5639 19.9407 13.6985 20.018C15.6737 19.3223 17.3876 18.0094 18.6004 16.2633C19.8131 14.5172 20.4639 12.4252 20.4617 10.2802Z" fill="black" fill-opacity="0.3"/>
</g>
<defs>
<clipPath id="clip0_11_2">
<rect width="20.0129" height="20.0129" fill="white" transform="translate(0.448822)"/>
</clipPath>
</defs>
</svg>
