<svg width="21" height="21" viewBox="0 0 21 21" fill="none" xmlns="http://www.w3.org/2000/svg">
<g clip-path="url(#clip0_10_38)">
<path d="M10.0064 1.803C12.6783 1.803 12.9947 1.81317 14.0499 1.86131C15.0255 1.90584 15.5553 2.06885 15.908 2.20585C16.375 2.38737 16.7084 2.60424 17.0585 2.95438C17.4086 3.30452 17.6255 3.63789 17.807 4.10493C17.944 4.45757 18.1071 4.9874 18.1516 5.96298C18.1997 7.01816 18.2099 7.33462 18.2099 10.0065C18.2099 12.6783 18.1997 12.9948 18.1516 14.0499C18.1071 15.0255 17.944 15.5554 17.807 15.908C17.6255 16.375 17.4086 16.7084 17.0585 17.0585C16.7084 17.4087 16.375 17.6256 15.908 17.807C15.5553 17.9441 15.0255 18.1071 14.0499 18.1516C12.9949 18.1998 12.6784 18.2099 10.0064 18.2099C7.33442 18.2099 7.01796 18.1998 5.96298 18.1516C4.98736 18.1071 4.45753 17.9441 4.10493 17.807C3.63785 17.6256 3.30448 17.4087 2.95434 17.0585C2.6042 16.7084 2.38733 16.375 2.20585 15.908C2.06881 15.5554 1.9058 15.0255 1.86127 14.0499C1.81313 12.9948 1.80296 12.6783 1.80296 10.0065C1.80296 7.33462 1.81313 7.01816 1.86127 5.96302C1.9058 4.9874 2.06881 4.45757 2.20585 4.10493C2.38733 3.63789 2.6042 3.30452 2.95434 2.95438C3.30448 2.60424 3.63785 2.38737 4.10493 2.20585C4.45753 2.06885 4.98736 1.90584 5.96294 1.86131C7.01812 1.81317 7.33458 1.803 10.0064 1.803ZM10.0064 0C7.28882 0 6.94809 0.011519 5.8808 0.0602165C4.81569 0.108835 4.08833 0.277965 3.4518 0.525345C2.79379 0.781067 2.23576 1.12322 1.67947 1.67951C1.12318 2.2358 0.781027 2.79383 0.525306 3.45184C0.277925 4.08837 0.108795 4.81573 0.0601768 5.88084C0.0114793 6.94809 0 7.28886 0 10.0065C0 12.7241 0.0114793 13.0648 0.0601768 14.1321C0.108795 15.1972 0.277925 15.9246 0.525306 16.5611C0.781027 17.2191 1.12318 17.7771 1.67947 18.3334C2.23576 18.8897 2.79379 19.2319 3.4518 19.4876C4.08833 19.735 4.81569 19.9041 5.8808 19.9527C6.94809 20.0014 7.28882 20.0129 10.0064 20.0129C12.724 20.0129 13.0648 20.0014 14.132 19.9527C15.1972 19.9041 15.9245 19.735 16.561 19.4876C17.2191 19.2319 17.7771 18.8897 18.3334 18.3334C18.8897 17.7771 19.2318 17.2191 19.4875 16.5611C19.7349 15.9246 19.9041 15.1972 19.9527 14.1321C20.0014 13.0648 20.0129 12.7241 20.0129 10.0065C20.0129 7.28886 20.0014 6.94809 19.9527 5.88084C19.9041 4.81573 19.7349 4.08837 19.4875 3.45184C19.2318 2.79383 18.8897 2.2358 18.3334 1.67951C17.7771 1.12322 17.2191 0.781067 16.561 0.525345C15.9245 0.277965 15.1972 0.108835 14.132 0.0602165C13.0648 0.011519 12.724 0 10.0064 0ZM10.0064 4.868C7.16854 4.868 4.86796 7.16858 4.86796 10.0065C4.86796 12.8443 7.16854 15.1449 10.0064 15.1449C12.8443 15.1449 15.1449 12.8443 15.1449 10.0065C15.1449 7.16858 12.8443 4.868 10.0064 4.868ZM10.0064 13.342C8.1643 13.342 6.67092 11.8486 6.67092 10.0065C6.67092 8.16434 8.1643 6.67096 10.0064 6.67096C11.8485 6.67096 13.3419 8.16434 13.3419 10.0065C13.3419 11.8486 11.8485 13.342 10.0064 13.342ZM16.5487 4.66499C16.5487 5.32817 16.0111 5.86579 15.3479 5.86579C14.6847 5.86579 14.1471 5.32817 14.1471 4.66499C14.1471 4.00181 14.6847 3.46424 15.3479 3.46424C16.0111 3.46424 16.5487 4.00181 16.5487 4.66499Z" fill="#0A0A08" fill-opacity="0.2"/>
</g>
<defs>
<clipPath id="clip0_10_38">
<rect width="20.0129" height="20.0129" fill="white"/>
</clipPath>
</defs>
</svg>
