<svg width="190" height="150" viewBox="0 0 190 150" fill="none" xmlns="http://www.w3.org/2000/svg">
<g clip-path="url(#clip0_78_48)">
<path d="M65.6693 115.48C65.8068 115.618 65.8068 115.618 65.8068 115.756L65.5318 116.031C65.2578 116.061 64.9932 116.149 64.7551 116.288C64.5171 116.427 64.3109 116.615 64.1499 116.839C64.0124 116.977 64.0124 116.977 63.8748 116.977H63.4622C63.4529 116.902 63.4604 116.826 63.4842 116.754C63.508 116.683 63.5475 116.617 63.5998 116.563L63.8748 116.287C63.8748 116.15 63.8748 116.15 64.0124 116.15L64.425 115.736C64.0124 115.736 63.7307 115.736 63.7307 115.874C63.591 116.014 63.591 116.292 63.7307 116.708L63.5932 116.57C63.4557 116.432 63.3181 116.432 63.1806 116.294C62.9738 116.329 62.7822 116.425 62.6305 116.57C62.6305 116.708 62.6305 116.708 62.4929 116.708H62.2179L62.0803 116.845C61.9428 116.845 61.9428 116.845 61.8053 116.983C61.6677 117.121 61.3927 117.121 61.111 117.259C60.7776 117.371 60.4535 117.509 60.1418 117.672C59.8317 117.862 59.5514 118.096 59.31 118.368H58.7599C58.5111 118.474 58.2776 118.613 58.0656 118.782L57.2339 119.057H57.0964C56.8476 119.164 56.6142 119.303 56.4021 119.471C56.0688 119.583 55.7447 119.722 55.4328 119.884C55.2307 119.95 55.0487 120.067 54.9042 120.223C54.7598 120.379 54.6577 120.57 54.6076 120.777H55.1578C55.2953 120.777 55.2953 120.777 55.4328 120.915C54.8968 121.288 54.2791 121.527 53.6318 121.611C51.2806 122.024 48.9295 122.307 46.5783 122.582C43.8145 122.858 41.0442 122.996 38.4179 122.996L34.2657 122.72C33.9906 122.582 33.8531 122.582 33.7156 122.72C33.6067 122.882 33.558 123.077 33.578 123.271C33.4405 124.381 33.303 125.49 33.1654 126.462C33.0279 127.571 33.0279 128.68 32.8904 129.652C32.9369 130.475 32.7435 131.293 32.3337 132.008H32.1961C32.0586 132.008 32.0586 132.008 32.0586 131.87L31.9211 131.732H31.7835C31.646 131.732 31.646 131.87 31.5085 132.008C31.5085 132.146 31.5085 132.146 31.3709 132.146C31.2963 132.155 31.2206 132.147 31.1493 132.123C31.0779 132.099 31.0128 132.06 30.9583 132.008L30.5457 131.595L30.4082 131.457H30.2576C29.9825 131.87 29.7074 132.153 29.5633 132.428C29.3044 132.793 29.1607 133.228 29.1507 133.675C29.0989 133.73 29.0597 133.795 29.0359 133.867C29.0121 133.938 29.0044 134.014 29.0132 134.089L28.6006 134.502C28.4983 134.572 28.3774 134.61 28.2535 134.61C28.1297 134.61 28.0087 134.572 27.9064 134.502H27.7689C27.6313 134.502 27.6313 134.502 27.6313 134.64C27.3458 135.016 26.9624 135.306 26.5233 135.477C26.0842 135.648 25.6065 135.695 25.1426 135.612C24.9488 135.632 24.7541 135.583 24.5925 135.474C24.0002 135.334 23.3837 135.334 22.7914 135.474C22.6096 135.479 22.4288 135.445 22.2615 135.374C22.0942 135.302 21.9443 135.195 21.8221 135.06C21.6374 134.981 21.4837 134.843 21.3844 134.667C21.2851 134.492 21.2456 134.289 21.272 134.089V133.813C21.272 133.675 21.272 133.675 21.1345 133.538C20.7246 133.154 20.4355 132.659 20.3027 132.113C20.1652 131.7 20.0277 131.142 19.8901 130.59C19.9003 130.351 19.8532 130.112 19.7526 129.895C19.0651 126.233 18.6491 122.525 18.5082 118.801C18.4798 118.346 18.3385 117.904 18.0973 117.517C17.856 117.13 17.5223 116.809 17.1263 116.583C12.3302 114.028 7.98485 110.702 4.26363 106.737C2.48563 104.951 1.15864 102.766 0.393033 100.363C-0.254144 98.0609 -0.0590319 95.6025 0.94317 93.4317C1.60704 92.0497 2.49195 90.7859 3.56287 89.6902C4.17615 89.0832 4.91571 88.6196 5.72863 88.3325C6.54156 88.0454 7.40775 87.9419 8.26522 88.0295H8.67782C8.89502 88.1301 9.133 88.1773 9.37204 88.1674C9.50958 88.3052 9.50958 88.3052 9.50958 88.443V89.2701C9.40534 90.3457 9.22146 91.412 8.95944 92.4602C8.82191 93.0116 8.82191 93.5695 8.68437 93.983V94.1209C8.54494 94.7145 8.54494 95.3324 8.68437 95.926C8.82191 95.2302 8.95944 94.4031 9.09697 93.7073C9.37204 92.0467 9.64711 90.3794 9.79119 88.5809C9.90328 88.915 10.0412 89.2398 10.2038 89.5523C10.2366 89.8825 10.1895 90.2158 10.0663 90.5238C10.0889 90.8989 10.0423 91.275 9.92873 91.6331C9.90706 92.2975 9.81485 92.9576 9.65366 93.6023C9.5082 94.774 9.64982 95.9636 10.0663 97.0681C9.92873 97.2059 9.79119 97.3438 9.92873 97.4816C9.90872 97.6759 9.95739 97.871 10.0663 98.033C10.1181 98.0875 10.1574 98.1529 10.1811 98.2244C10.2049 98.2959 10.2126 98.3717 10.2038 98.4465C10.2557 98.392 10.2949 98.3267 10.3187 98.2552C10.3424 98.1837 10.3502 98.1078 10.3413 98.033C10.3413 97.8952 10.3413 97.8952 10.2038 97.7573V97.3438L10.3413 97.4816C11.1827 98.7406 12.1037 99.9443 13.0986 101.085C14.4022 102.389 15.8401 103.551 17.3883 104.551C17.5725 103.874 17.6193 103.166 17.5258 102.47V101.742C17.3883 97.1469 17.2508 92.4536 17.1132 87.7407C16.9757 86.2178 16.9757 84.6884 16.9757 83.1459C16.8382 81.7609 16.8382 80.3759 16.8382 78.9843C16.7006 75.9321 16.7006 72.8864 16.5631 69.6963C16.4256 64.4451 16.4256 59.1611 16.5631 54.0281C16.5399 53.0087 16.5858 51.989 16.7006 50.9759C16.8382 47.7858 16.9757 44.4578 17.1132 41.1299C17.2478 36.0782 17.6632 31.038 18.3576 26.0327C18.4951 25.0613 18.4951 24.2276 18.6327 23.4072L19.0584 19.6919C19.1959 18.7205 19.471 17.7227 19.6151 16.7775C19.7526 16.0818 19.8901 15.2547 20.0277 14.4211C20.1921 13.1168 20.4238 11.822 20.7219 10.5418L20.9969 9.15676L21.1345 9.01892C21.272 8.32313 21.4095 7.77176 21.5471 7.21382C22.0114 6.39772 22.3389 5.51072 22.5164 4.58823C22.6464 3.75809 22.9284 2.95919 23.3481 2.23176V2.08079C23.4961 1.62938 23.7884 1.23948 24.1799 0.97148C25.1492 0.275698 25.6993 0.420105 25.9809 1.52285L26.1185 1.6607V1.79854C26.256 1.6607 26.256 1.52285 26.3935 1.38501C26.4643 1.05629 26.554 0.731928 26.662 0.413541C26.7996 0.275698 26.7996 0.137854 26.9371 1.09235e-05C27.0118 -0.00932501 27.0876 -0.00179078 27.159 0.0220611C27.2304 0.0459131 27.2956 0.0854779 27.3497 0.137854C27.5153 0.172023 27.6724 0.238971 27.8119 0.334776C27.9513 0.430582 28.0703 0.553318 28.1618 0.695792C28.2719 1.01409 28.3638 1.33844 28.4369 1.66726L28.5744 1.52942C28.7119 1.39157 28.8495 1.25373 28.8495 1.11589C28.987 0.702357 29.2621 0.702357 29.5437 0.978044C29.959 1.12603 30.3368 1.36354 30.6505 1.67383C30.8091 1.86475 30.9275 2.08592 30.9984 2.32397C31.0693 2.56202 31.0913 2.812 31.0631 3.05882C31.4757 2.36304 32.0324 2.2252 32.445 2.78314C32.5826 2.92098 32.8576 3.05882 32.9952 3.19667L33.5453 3.74804C33.7549 3.99444 33.9091 4.28326 33.9972 4.59479C33.9972 4.73264 33.9972 4.73264 34.1347 4.73264V4.87048C34.2481 4.80793 34.3799 4.78746 34.5069 4.81267C34.6339 4.83788 34.7479 4.90716 34.8289 5.00833C34.9378 5.1703 34.9865 5.36544 34.9665 5.5597C35.104 5.69754 35.104 5.83539 35.2415 5.97323C35.2415 6.11107 35.2415 6.11107 35.3791 6.24892V6.38676C35.3791 6.5246 35.3791 6.5246 35.2415 6.5246C35.0884 6.77819 34.9944 7.06315 34.9665 7.35823C34.8527 7.71633 34.8061 8.09243 34.8289 8.46754C34.8489 8.66181 34.8003 8.85695 34.6914 9.01892L34.2788 13.1805C34.1413 14.4276 34.0037 15.5369 33.8662 16.6463C33.891 17.3057 33.8449 17.9659 33.7287 18.6154C33.3161 22.9149 32.8969 27.2077 32.6218 31.5071C32.3468 35.8065 32.2092 39.9615 32.2092 44.1231C32.0914 45.4687 32.0914 46.8537 32.0914 48.1074V49.8862C31.9538 51.2712 31.9538 52.6562 31.9538 54.0478L31.646 59.0758V74.0482C32.0727 74.023 32.4928 73.9299 32.8904 73.7725L33.4405 73.4969C33.5152 73.5062 33.591 73.4987 33.6624 73.4748C33.7338 73.451 33.7989 73.4114 33.8531 73.359C33.8438 73.2842 33.8513 73.2082 33.8751 73.1366C33.8989 73.0651 33.9384 72.9998 33.9906 72.9455V72.8076C34.9599 69.8932 35.9554 67.1232 36.8985 64.2154C38.2804 60.4739 39.6623 56.8703 41.1883 53.2667C43.2644 48.4159 45.6155 43.703 47.9667 38.99C50.9007 33.1808 54.277 27.6068 58.0656 22.3175C60.8119 18.6434 63.8662 15.2111 67.1953 12.058C69.7781 9.58343 72.6578 7.44026 75.7682 5.67785C77.0031 4.96347 78.2983 4.35944 79.6388 3.87276C81.0305 3.37733 82.5081 3.17073 83.9819 3.26552C85.4556 3.36031 86.8948 3.7545 88.2118 4.42413C91.0183 5.79434 93.513 7.72936 95.5404 10.1085C96.7957 11.7986 97.5187 13.8261 97.6165 15.9308C97.744 18.3515 97.3184 20.7694 96.3721 23.0002L95.5404 24.9694C94.8541 27.0132 94.0224 29.005 93.0517 30.9295C91.5105 33.8439 89.8027 36.6668 87.9367 39.3839C85.8606 42.2983 83.647 45.0683 81.2958 47.8383C80.7166 48.3745 80.2062 48.9809 79.7764 49.6434C78.6878 50.7803 77.6707 51.9838 76.731 53.247C76.0368 54.0806 75.3491 54.9077 74.6549 55.6035C73.9606 56.4371 73.1354 57.2641 72.4412 57.9599C71.4719 58.9314 70.3651 60.0407 69.3958 61.15C68.7016 61.8458 68.0139 62.3972 67.3197 63.1192C67.1713 63.3769 66.986 63.6113 66.7696 63.815L64.6935 65.8958L62.2179 68.0685C61.2486 69.0399 60.2531 69.8735 59.31 70.694C59.1725 70.8319 59.1725 70.8319 59.1725 70.9697C59.0349 71.1076 59.0349 71.1076 59.0349 71.2454L58.7599 71.5211C58.6223 71.6589 58.6223 71.7968 58.4848 71.9346C58.3232 72.0437 58.1285 72.0925 57.9347 72.0725C57.6038 72.1624 57.3021 72.3376 57.0597 72.5806C56.8173 72.8235 56.6425 73.1259 56.5528 73.4575C57.2398 73.8557 57.9878 74.1373 58.7664 74.2911C58.9602 74.271 59.1549 74.3198 59.3165 74.4289C62.6953 75.3108 65.8217 76.9719 68.4462 79.2797C70.2861 80.8045 71.7931 82.6925 72.8735 84.8263C73.7052 86.6314 74.5304 88.4299 75.2247 90.235C75.8702 92.1986 76.1065 94.2741 75.9189 96.3329C75.7896 99.0628 75.1218 101.74 73.9541 104.21C73.1504 105.964 72.1765 107.635 71.0462 109.198L70.7712 109.75C70.2182 110.284 69.8334 110.968 69.6644 111.719C69.6737 111.794 69.6661 111.87 69.6423 111.941C69.6186 112.013 69.5791 112.078 69.5268 112.132C69.3893 112.27 69.1142 112.27 68.9767 112.408C68.7193 112.556 68.4853 112.742 68.2825 112.959C68.1449 113.097 68.1449 113.235 68.0074 113.373C67.844 113.484 67.6467 113.533 67.4507 113.511C67.4507 113.787 67.4507 113.924 67.3132 114.062L66.9006 114.476L66.6255 114.889C66.5327 115.064 66.3923 115.208 66.2206 115.306C66.049 115.404 65.8533 115.45 65.6562 115.441V115.165C65.7937 115.027 65.6562 115.027 65.5187 114.889C65.3811 114.889 65.3811 114.889 65.3811 115.027C65.3811 115.165 65.3811 115.165 65.5187 115.165C65.5187 115.303 65.5187 115.303 65.6562 115.303L65.6693 115.48ZM3.01273 94.8232C2.8127 94.9531 2.66281 95.1474 2.5878 95.3741C2.51279 95.6009 2.51714 95.8465 2.60013 96.0704C2.73766 95.9325 2.73766 95.6569 2.8752 95.3746C2.85518 95.1803 2.90386 94.9852 3.01273 94.8232ZM7.71508 93.5761V93.7139C7.62425 93.8338 7.57508 93.9802 7.57508 94.1307C7.57508 94.2813 7.62425 94.4276 7.71508 94.5475C7.76734 94.4933 7.80682 94.428 7.83062 94.3564C7.85442 94.2848 7.86193 94.2089 7.85262 94.134C7.87421 93.9376 7.82547 93.7398 7.71508 93.5761ZM19.3334 75.6892C19.472 75.3325 19.472 74.9367 19.3334 74.5799V75.1313C19.2671 75.2077 19.2306 75.3056 19.2306 75.407C19.2306 75.5083 19.2671 75.6062 19.3334 75.6827C19.2408 76.6557 19.2871 77.6371 19.471 78.5971C19.6324 77.629 19.5855 76.6376 19.3334 75.6892ZM20.1652 67.8125C19.8901 72.2497 19.8901 76.8248 20.0277 81.3999C20.2822 81.2347 20.4756 80.9902 20.5778 80.7041C20.6476 80.6016 20.685 80.4803 20.685 80.3562C20.685 80.2321 20.6476 80.1108 20.5778 80.0083C20.4403 76.8182 20.3027 73.7725 20.1652 70.7203V67.8125ZM20.8529 84.6753V84.3996C20.7153 84.2618 20.7153 84.2618 20.5778 84.2618C20.4403 84.1239 20.4403 84.1239 20.3027 84.1239C20.1652 84.2618 20.1652 84.2618 20.1652 84.3996C20.1652 84.5375 20.1652 84.5375 20.0277 84.5375C20.0277 84.6753 20.0277 84.6753 20.1652 84.8132C20.1652 84.951 20.1652 84.951 20.3027 84.951C20.5778 85.1151 20.7153 84.9773 20.8529 84.6753ZM20.3027 87.058C20.3027 87.4716 20.3027 88.5809 20.4403 90.5238C20.4403 92.6046 20.5778 94.8232 20.7153 97.1797C20.855 99.674 20.9926 101.893 21.1279 103.836C21.2655 105.805 21.2655 106.888 21.2655 107.163C21.403 107.026 21.403 106.888 21.5405 106.75V103.711C21.4259 103.024 21.3799 102.327 21.403 101.63C21.403 99.4114 21.403 97.1928 21.2655 94.8363C21.2887 93.5876 21.2428 92.3385 21.1279 91.0949C21.1512 90.0755 21.1052 89.0558 20.9904 88.0426C20.991 87.8275 20.9253 87.6174 20.8022 87.4412C20.6791 87.2649 20.5046 87.1311 20.3027 87.058ZM22.3788 125.595C22.5625 124.311 22.6086 123.01 22.5164 121.716C22.3788 120.469 22.2413 119.635 21.8221 119.09V119.924C21.9597 121.854 22.0972 123.797 22.3788 125.595ZM24.4549 77.9079C24.6706 77.0011 24.7631 76.0694 24.73 75.1379V71.2585C24.6597 70.3741 24.5218 69.4963 24.3174 68.6329C24.1876 69.5986 24.1416 70.5737 24.1799 71.5474C24.1541 72.842 24.2 74.1371 24.3174 75.4267C24.2643 76.256 24.3083 77.0888 24.4484 77.9079H24.4549ZM24.4549 66.9526V66.539L24.3174 66.6769V66.8147L24.4549 66.9526ZM28.3255 60.1589V60.7102C28.2014 61.1654 28.1462 61.6367 28.1618 62.1084V65.4363C28.0243 68.4885 28.0243 71.5342 28.1618 74.4486C28.1618 74.5865 28.1618 74.5865 28.0243 74.7243V75.1379C28.0243 75.2757 28.1618 75.4135 28.4369 75.4135C28.5744 75.4135 28.5744 75.2757 28.7119 75.1379C28.7208 75.063 28.7131 74.9872 28.6893 74.9157C28.6655 74.8442 28.6263 74.7789 28.5744 74.7243V74.5865C28.7128 72.0941 28.7128 69.5959 28.5744 67.1035V62.7976C28.5062 62.6693 28.4705 62.5261 28.4705 62.3808C28.4705 62.2354 28.5062 62.0922 28.5744 61.964C28.5695 61.3562 28.4859 60.7516 28.3255 60.1654V60.1589ZM30.2903 65.0096C30.1306 65.8321 30.0386 66.6664 30.0152 67.5039V68.0553C30.0152 69.5782 30.0152 71.2454 29.8777 72.7683V74.173C29.8777 74.3108 29.8777 74.3108 30.0152 74.4486C30.0152 74.5865 30.0152 74.5865 30.1528 74.7243C30.2903 74.7243 30.4278 74.5865 30.5654 74.4486V73.8973C30.3813 71.4074 30.3354 68.9093 30.4278 66.4143C30.461 66.0841 30.4138 65.7508 30.2903 65.4429V65.0096ZM30.847 92.8737V92.7359C30.7947 92.7902 30.7553 92.8555 30.7315 92.927C30.7077 92.9986 30.7002 93.0746 30.7095 93.1494C30.6431 93.2259 30.6066 93.3238 30.6066 93.4251C30.6066 93.5264 30.6431 93.6243 30.7095 93.7008C30.847 93.5629 30.847 93.4251 30.9845 93.2872C30.9882 93.211 30.9749 93.1348 30.9454 93.0644C30.9159 92.994 30.8711 92.9311 30.8143 92.8803L30.847 92.8737ZM34.0299 111.312L34.4425 108.398C34.1582 109.345 34.0082 110.329 33.9972 111.318L34.0299 111.312ZM41.6009 84.0189C41.6531 83.9646 41.6926 83.8993 41.7164 83.8278C41.7402 83.7562 41.7477 83.6802 41.7384 83.6054C41.7384 83.4675 41.7384 83.4675 41.6009 83.4675H41.0507C41.1883 83.6054 41.1883 83.6054 41.3258 83.6054C41.4633 83.7432 41.4633 83.7432 41.6009 83.7432V84.0189C41.4633 84.1568 41.4633 84.1568 41.4633 84.2946L41.1883 84.5703C41.0507 84.7081 40.9132 84.846 40.7756 84.846C40.5616 84.9023 40.3632 85.0066 40.1953 85.151C40.0273 85.2954 39.8944 85.4761 39.8064 85.6796C39.5688 86.0198 39.3834 86.3937 39.2562 86.7889L38.7061 89.5589C37.9857 92.8803 37.3307 96.2082 36.6234 99.674C35.9292 103.698 35.3791 107.853 34.6587 112.014C34.5986 112.152 34.5796 112.304 34.604 112.452C34.6284 112.6 34.6952 112.737 34.7962 112.848C35.0417 113.042 35.325 113.183 35.6279 113.261C35.9454 113.372 36.2691 113.464 36.5972 113.537C38.7535 114.182 41.0361 114.276 43.2382 113.813C47.5814 112.739 51.5214 110.427 54.5814 107.157C57.1668 104.758 59.0353 101.685 59.978 98.2824C60.8082 95.3828 60.8082 92.3076 59.978 89.4079C59.2977 87.2997 58.0881 85.4022 56.4653 83.8975C54.8424 82.3928 52.8608 81.3316 50.7108 80.8157C50.0182 80.5491 49.2763 80.4357 48.5359 80.4833C47.7955 80.5309 47.0741 80.7383 46.4211 81.0914C46.1723 81.1974 45.9388 81.3365 45.7269 81.5049C45.2796 81.7847 44.8626 82.1102 44.4825 82.4764C43.615 83.1488 42.6409 83.6702 41.6009 84.0189ZM35.2415 103.566H35.104C34.9665 103.704 34.9665 103.704 34.9665 103.842C34.8523 104.388 34.8061 104.946 34.8289 105.503L34.6914 106.054C34.8289 105.503 34.9665 104.945 35.104 104.531C35.0709 104.201 35.1181 103.868 35.2415 103.56V103.284C35.3676 103.076 35.4162 102.829 35.3791 102.588C35.3991 102.394 35.3504 102.199 35.2415 102.037V103.566ZM36.6234 95.2499C36.761 95.112 36.8985 95.112 36.8985 94.9742C36.8985 94.8363 36.8985 94.8363 37.036 94.6985V94.5213C37.1736 93.8255 37.3111 93.2741 37.4486 92.5521L37.9988 90.0578C38.1363 89.0863 38.4114 88.2527 38.5489 87.4322C38.6864 87.0187 38.6864 86.5986 38.824 86.185C38.6864 86.3229 38.5489 86.5986 38.4114 86.7364C38.301 86.9002 38.2522 87.0979 38.2738 87.2943V87.4322L37.9857 88.3052C37.8481 89.001 37.7106 89.5523 37.5731 90.2744L37.3307 91.8957C37.033 92.9901 36.8012 94.1014 36.6365 95.2236C36.3386 96.411 36.1069 97.6141 35.9423 98.8272L35.5297 100.908C35.6672 100.77 35.8048 100.494 35.9423 100.357C36.0798 99.3852 36.2174 98.5516 36.3549 97.7311L36.63 96.6217V96.4905C36.7676 96.0836 36.7653 95.6422 36.6234 95.2367V95.2499ZM63.0431 19.6919C62.9055 19.8298 62.9055 19.8298 62.768 19.8298C62.6305 19.9676 62.6305 19.9676 62.6305 20.1055H62.4929C60.0362 23.0014 57.7718 26.0558 55.7145 29.2491C51.9341 35.0382 48.6038 41.1103 45.7531 47.4116C42.6901 54.0512 39.9664 60.8427 37.5927 67.7599L37.3307 68.482C36.9265 69.4124 36.6468 70.3924 36.499 71.3964L36.9116 70.9829C37.0491 70.845 37.0491 70.7072 37.1867 70.5693C37.1765 70.3297 37.2236 70.0912 37.3242 69.8735C39.5378 63.4999 42.0266 57.2576 44.6528 51.0218C47.5816 44.1495 51.0459 37.519 55.0137 31.192C57.1129 27.7694 59.4227 24.481 61.9297 21.3461L62.2179 21.0704C62.5875 20.7246 62.8721 20.2977 63.0496 19.8232C63.4622 19.8232 63.5998 19.6854 63.4622 19.2718C63.4051 19.2629 63.3467 19.2675 63.2918 19.2855C63.2369 19.3034 63.1869 19.3341 63.1461 19.3751C63.1052 19.416 63.0746 19.4661 63.0567 19.5211C63.0388 19.5762 63.0341 19.6347 63.0431 19.6919ZM46.3032 58.3603C46.8676 57.7072 47.1709 56.8678 47.1546 56.0039C47.2293 56.0127 47.305 56.005 47.3763 55.9811C47.4476 55.9573 47.5128 55.918 47.5672 55.866C47.5584 55.7912 47.5661 55.7153 47.5899 55.6439C47.6136 55.5724 47.6529 55.507 47.7047 55.4525V55.3146C49.5058 51.1531 51.4378 47.1359 53.5139 43.1188L53.9265 42.2851C54.3409 41.757 54.6258 41.1387 54.7583 40.4801C55.1669 40.0565 55.4542 39.5305 55.59 38.9572C55.9935 38.5845 56.2821 38.104 56.4218 37.5722C56.5593 37.4344 56.5593 37.2965 56.6969 37.1587C56.4256 37.4007 56.1917 37.6816 56.0026 37.9923C55.84 38.3048 55.7021 38.6297 55.59 38.9638C55.3305 39.1224 55.117 39.3465 54.971 39.6138C54.8251 39.881 54.7517 40.182 54.7583 40.4866C54.6207 40.4866 54.4832 40.4866 54.4832 40.6245C54.3457 40.7623 54.3457 40.9002 54.2081 41.038C54.2081 41.1758 54.2081 41.1758 54.0706 41.3137C51.9945 45.3308 50.0625 49.3546 48.2614 53.5161C48.08 53.724 47.9279 53.9559 47.8095 54.2053C47.5423 54.8352 47.3573 55.4971 47.2594 56.1745C46.7425 56.8129 46.4075 57.5795 46.2901 58.3932L46.015 58.6688C45.8775 58.8067 45.8775 59.0824 45.74 59.2202C45.6712 59.3483 45.6352 59.4915 45.6352 59.637C45.6352 59.7825 45.6712 59.9257 45.74 60.0538H45.6024C45.4649 60.0538 45.4649 60.0538 45.4649 60.1917L45.1898 60.7168C44.9486 61.2419 44.7662 61.7923 44.6462 62.3578C44.2264 63.0852 43.9444 63.8841 43.8145 64.7143C43.952 64.4386 43.952 64.1563 44.0896 64.0185C44.4566 63.5436 44.6527 62.9584 44.6462 62.3578C44.9847 61.9583 45.2227 61.4834 45.3405 60.9728C45.4526 60.6387 45.5906 60.3139 45.7531 60.0013L46.0281 59.45C46.1817 59.1053 46.2747 58.7367 46.3032 58.3603ZM44.5349 81.9316V81.7937L44.6724 81.6559C44.6724 81.518 44.6724 81.518 44.5349 81.518C44.3974 81.518 44.3974 81.518 44.2598 81.6559L44.5349 81.9316ZM44.81 56.5618C44.8007 56.487 44.8082 56.411 44.832 56.3394C44.8558 56.2679 44.8953 56.2025 44.9475 56.1483C45.085 56.0104 45.0851 55.8726 45.2226 55.7347C45.2314 55.6599 45.2237 55.5841 45.1999 55.5126C45.1761 55.4411 45.1369 55.3757 45.085 55.3212L44.9475 55.7347C44.81 55.8726 44.81 55.8726 44.81 56.0104C44.7399 56.0837 44.6987 56.1798 44.6938 56.2812C44.689 56.3825 44.721 56.4822 44.7838 56.5618H44.81ZM60.6919 33.135C60.5544 33.2728 60.4168 33.2728 60.2793 33.4107C60.1418 33.5485 60.1418 33.5485 60.1418 33.6863L60.0042 33.8242C58.2614 36.3292 56.6461 38.9209 55.1643 41.5894C51.4397 48.5849 48.1586 55.8086 45.3405 63.2177V63.4934C45.2741 63.5698 45.2376 63.6677 45.2376 63.769C45.2376 63.8704 45.2741 63.9683 45.3405 64.0447C45.3923 63.9902 45.4316 63.9249 45.4553 63.8534C45.4791 63.7819 45.4869 63.706 45.478 63.6312C45.6513 63.4407 45.7491 63.1932 45.7531 62.9354C47.8095 57.809 50.0428 52.6759 52.5315 47.5495C54.5643 43.2462 56.8745 39.0802 59.4475 35.0779C59.5851 34.9401 59.7226 34.6644 59.8601 34.5265C60.2638 34.1541 60.5525 33.6734 60.6919 33.1415C60.9879 32.9849 61.2298 32.7424 61.3861 32.4457C61.5236 32.3079 61.5236 32.0322 61.6612 31.6121C61.5581 31.8195 61.4183 32.0063 61.2486 32.1635L60.836 32.577C60.7233 32.7399 60.6722 32.9377 60.6919 33.135ZM53.4877 38.5437C53.1749 38.6353 52.9057 38.8373 52.7299 39.1124C52.5541 39.3875 52.4836 39.7171 52.5315 40.0403C52.2565 40.1781 52.1189 40.1781 51.9814 40.316C51.8439 40.4538 51.8439 40.7295 51.7063 40.8673C51.7063 41.0052 51.7063 41.0052 51.5688 41.143C49.7743 44.4972 48.2418 47.8251 46.7224 51.2909L45.8906 52.9516V53.6474C46.1059 53.3416 46.2923 53.0164 46.4473 52.6759C47.0183 51.2972 47.6745 49.9556 48.4121 48.6588C49.1063 46.9981 49.9315 45.3308 50.7632 43.5323C51.4356 42.4124 52.0266 41.2453 52.5315 40.0403C52.8376 39.549 53.1153 39.0406 53.3633 38.5174L53.6384 38.2417C53.75 37.9812 53.7972 37.6974 53.7759 37.4147C53.6384 37.5525 53.5008 37.8282 53.3633 37.9661C53.2258 38.1039 53.3567 38.3993 53.5008 38.5371L53.4877 38.5437ZM46.7224 62.6597C47.135 62.384 47.4166 62.1018 47.6916 61.964C48.7985 60.8546 49.9053 59.7453 51.0121 58.7739C55.2953 54.7567 59.4475 50.7396 63.7307 46.6042C68.4248 41.989 72.7702 37.0304 76.731 31.7697C79.8658 27.81 82.5051 23.4806 84.5901 18.878C85.5472 16.699 85.9737 14.3232 85.8344 11.9464C85.8344 11.5329 85.5594 11.3951 85.1402 11.5329C84.8121 11.6061 84.4885 11.6981 84.1709 11.8086C83.4767 12.0843 82.789 12.36 82.2061 12.6422C79.0507 14.4006 76.1231 16.5412 73.4891 19.0159C71.1581 21.0741 69.0266 23.3488 67.1232 25.8096C64.3551 29.2753 61.7354 32.879 59.2642 36.6204C56.9248 40.1119 54.8452 43.7714 53.0424 47.5692C51.2413 51.3106 49.4468 55.1965 47.9274 59.2136L47.5148 60.0473C47.1095 60.8687 46.8418 61.7513 46.7224 62.6597ZM57.2339 120.055L56.8213 120.469C56.6838 120.607 56.4087 120.607 56.2711 120.744C56.1336 120.744 56.1336 120.744 55.9961 120.882L55.8586 120.744C55.721 120.744 55.721 120.744 55.721 120.607V120.331H55.8586C56.0524 120.351 56.2471 120.302 56.4087 120.193C56.5283 120.102 56.6744 120.053 56.8246 120.053C56.9748 120.053 57.1208 120.102 57.2404 120.193L57.2339 120.055ZM57.2339 120.055V120.193C57.3365 119.983 57.4763 119.794 57.6465 119.635H58.0591C58.3433 119.704 58.6214 119.797 58.8908 119.911H58.7533C58.5595 119.891 58.3648 119.939 58.2032 120.049H57.7906C57.7147 120.118 57.6161 120.157 57.5135 120.158C57.4109 120.159 57.3114 120.123 57.2339 120.055ZM59.31 119.222C59.0933 119.425 58.908 119.659 58.7599 119.917H58.8974C58.7599 119.504 58.7599 119.366 58.8974 119.222C58.893 119.081 59.0306 119.081 59.31 119.222ZM62.8728 117.416C62.7848 117.62 62.6518 117.801 62.4839 117.945C62.316 118.089 62.1175 118.194 61.9035 118.25L61.0717 118.664C60.6843 118.904 60.2655 119.09 59.8274 119.215H59.2773C59.209 119.087 59.1733 118.944 59.1733 118.798C59.1733 118.653 59.209 118.51 59.2773 118.381H59.4148C59.4692 118.433 59.5344 118.473 59.6057 118.496C59.677 118.52 59.7527 118.528 59.8274 118.519C60.0199 118.525 60.2103 118.477 60.3775 118.381C60.5151 118.243 60.7901 118.243 61.0717 118.106L61.9035 117.692C62.041 117.692 62.041 117.692 62.1786 117.554H62.5912L62.8728 117.416ZM61.1045 52.6759C61.3533 52.5698 61.5868 52.4307 61.7987 52.2624L62.2179 51.8554L62.6305 51.4419C63.126 50.9555 63.5877 50.4358 64.0124 49.8862L64.5625 49.3349C64.425 49.3349 64.425 49.3349 64.425 49.197H64.2874L63.5932 49.8862C62.8728 50.6017 62.2179 51.4288 61.5236 52.1246H61.3861L61.2486 52.2624C61.2486 52.4002 61.2486 52.4002 61.111 52.5381L61.2486 52.6759C60.836 52.5381 60.5544 52.8138 60.6984 53.2273C60.8054 53.1749 60.8981 53.0974 60.9688 53.0014C61.0395 52.9054 61.086 52.7938 61.1045 52.6759ZM61.7987 117.003C61.7987 117.141 61.7987 117.141 61.9362 117.141C62.0061 117.243 62.0434 117.365 62.0434 117.489C62.0434 117.613 62.0061 117.734 61.9362 117.837C61.7987 117.699 61.7987 117.699 61.7987 117.561C61.6612 117.561 61.6612 117.561 61.6612 117.423L61.7987 117.285V117.003ZM63.1806 29.6692C62.9737 29.7725 62.7873 29.9126 62.6305 30.0827C62.4929 30.2206 62.3554 30.3584 62.3554 30.4962C62.2294 30.7048 62.1807 30.9511 62.2179 31.192C62.3209 30.9847 62.4607 30.7979 62.6305 30.6407C62.768 30.5028 62.9055 30.2271 63.0431 30.0893C63.1806 29.9514 63.1806 29.8136 63.1806 29.5379C63.3181 29.5379 63.4557 29.4001 63.5932 29.2622C63.7307 29.1244 63.7307 28.9865 63.8683 28.8487V28.7108C63.4557 28.8356 63.3181 29.2491 63.1806 29.6692ZM63.4557 117.003C63.5932 117.416 63.3181 117.554 62.9055 117.416C63.0431 117.279 63.0431 117.141 63.1806 117.003H63.4557ZM63.4557 98.8404C63.8746 98.115 64.1566 97.3183 64.2874 96.4905C64.3004 95.7591 64.1099 95.0386 63.7373 94.4097C63.7601 94.9668 63.7139 95.5247 63.5998 96.0704C63.483 96.9888 63.4349 97.9147 63.4557 98.8404ZM64.5625 27.8641C64.7188 27.7854 64.8519 27.667 64.9484 27.5207C65.0449 27.3745 65.1015 27.2055 65.1126 27.0305L64.9751 27.1683C64.8376 27.1683 64.8376 27.1683 64.7 27.3062C64.5896 27.4699 64.5409 27.6677 64.5625 27.8641ZM71.8911 96.0704C71.7679 96.3784 71.7207 96.7116 71.7536 97.0418C71.8602 96.7295 71.909 96.4003 71.8976 96.0704H71.8911ZM72.3037 96.6217C72.6079 96.0724 72.7055 95.432 72.5788 94.8167C72.4318 95.4084 72.3419 96.0128 72.3102 96.6217H72.3037ZM74.5173 95.0989C74.1 96.3964 73.9594 97.7672 74.1047 99.1226C74.2423 99.2605 74.2423 99.2605 74.2423 99.3983C74.6842 98.0096 74.7809 96.5336 74.5239 95.0989H74.5173ZM80.8832 4.85079C80.0739 4.87706 79.2959 5.17007 78.6696 5.68441C79.4669 5.60296 80.2296 5.31574 80.8832 4.85079ZM80.3331 32.4195C82.9016 29.5797 84.8353 26.2229 86.0047 22.5735C84.8979 24.2342 83.9286 25.9015 82.9593 27.7C82.1275 29.2491 81.3024 30.9163 80.3331 32.4392V32.4195ZM84.7603 23.4072H84.6228V23.545C84.5139 23.707 84.4653 23.9021 84.4853 24.0964H84.6228L84.8979 23.8207V23.5647C84.8979 23.4268 84.8979 23.4268 84.7603 23.4268V23.4072ZM87.2491 38.1039C87.3237 38.1128 87.3994 38.105 87.4707 38.0812C87.5421 38.0574 87.6072 38.018 87.6617 37.9661L87.9367 37.6904C87.9367 37.5525 87.9367 37.5525 88.0743 37.5525C90.0977 34.6984 91.8144 31.6379 93.1958 28.422C93.248 28.3678 93.2875 28.3024 93.3113 28.2309C93.3351 28.1593 93.3426 28.0833 93.3333 28.0085V27.5687H93.1958C92.6395 28.5156 92.1366 29.493 91.6894 30.4962C90.4021 33.1881 88.9225 35.7832 87.2622 38.2614L87.1246 38.3993L86.9871 38.5371C86.9558 38.5617 86.9305 38.5931 86.913 38.6289C86.8956 38.6647 86.8866 38.704 86.8866 38.7439C86.8866 38.7837 86.8956 38.8231 86.913 38.8589C86.9305 38.8947 86.9558 38.9261 86.9871 38.9506C87.1306 38.8751 87.2386 38.7459 87.2876 38.5911C87.3367 38.4362 87.3228 38.2682 87.2491 38.1236V38.1039ZM88.906 24.7987L88.0743 26.4594C87.8043 27.0486 87.4797 27.6112 87.105 28.1398C88.1189 27.3112 88.766 26.1155 88.906 24.8118V24.7987ZM93.0582 24.6609C91.8139 26.7417 90.7071 28.9603 89.4627 31.1789C91.209 29.3637 92.4489 27.1205 93.0582 24.674V24.6609ZM96.9288 16.9154C96.9488 17.1096 96.9002 17.3048 96.7913 17.4668C96.6995 18.0232 96.7468 18.5938 96.9288 19.1274V18.8518C97.052 18.5437 97.0992 18.2105 97.0664 17.8803C97.0791 17.553 97.0325 17.226 96.9288 16.9154Z" fill="#476930"/>
<path d="M96.6537 29.9449C97.0663 29.6692 97.0663 28.9734 97.2038 28.5599C97.3413 28.1463 97.3413 27.5884 97.7539 27.3127C97.4789 28.6977 97.3413 30.0827 97.0597 31.4743C96.228 36.069 95.6778 40.7623 95.0949 45.4752L94.309 55.0389C94.034 58.7804 93.7589 62.384 93.6148 66.1321C93.3397 69.7357 93.2022 73.4771 93.2022 77.2252C93.2022 80.1396 93.3397 83.0474 93.4773 85.9618C93.4743 89.118 93.7526 92.2681 94.309 95.3746C94.5308 97.0217 94.9013 98.6453 95.4159 100.225C95.5491 100.832 95.8925 101.371 96.3851 101.748C97.2169 102.582 97.2169 102.995 96.2476 103.717C95.9725 103.855 95.6975 103.855 95.6975 104.269C95.6904 104.41 95.6491 104.547 95.5772 104.668C95.5053 104.789 95.405 104.891 95.2849 104.965C93.903 106.074 91.1327 106.074 89.6132 105.102C88.6899 104.403 88.0039 103.436 87.6485 102.332C86.9532 100.911 86.3982 99.4248 85.9915 97.8951C84.7127 92.6826 83.7915 87.3884 83.2343 82.0497C82.8217 78.8596 82.54 75.6761 82.265 72.3481C81.7181 66.2707 81.5846 60.1631 81.8655 54.0675C82.1712 47.6396 82.9571 41.2436 84.2166 34.9335C85.3235 29.9449 86.2928 24.9497 87.8122 20.0989C88.1888 18.867 88.6506 17.6629 89.1941 16.4953C89.7973 15.2732 90.6983 14.2234 91.8138 13.443C91.9655 13.298 92.1571 13.202 92.3639 13.1673C92.639 13.0295 92.7765 13.1673 92.7765 13.443C92.681 13.6106 92.6334 13.8014 92.639 13.9944C92.2264 15.3794 92.2264 15.3794 93.4707 15.2415C93.6776 15.1383 93.864 14.9981 94.0209 14.828L94.4335 13.9944C94.7085 13.7187 94.9836 13.7187 95.1277 13.9944C95.2953 14.1797 95.4194 14.4003 95.4908 14.64C95.5622 14.8796 95.5791 15.1323 95.5403 15.3794C95.5634 16.0758 95.5174 16.7729 95.4028 17.4602C95.3767 17.6989 95.4145 17.9402 95.5124 18.1594C95.6102 18.3786 95.7645 18.5677 95.9594 18.7073C96.2345 18.7073 96.372 18.4316 96.5096 18.1559C96.8449 17.4675 97.3148 16.8537 97.8915 16.3509C97.9249 16.2877 97.9749 16.2348 98.0361 16.198C98.0972 16.1611 98.1672 16.1416 98.2386 16.1416C98.3099 16.1416 98.3799 16.1611 98.4411 16.198C98.5023 16.2348 98.5522 16.2877 98.5857 16.3509C98.9983 17.0466 99.83 17.7359 99.4174 18.7073C99.3183 19.2416 99.1324 19.7561 98.8673 20.2302C97.898 22.7245 97.4854 25.3566 96.9025 27.8575C96.6671 28.5719 96.5736 29.3257 96.6275 30.0761C96.4899 30.4897 96.2149 30.9098 96.6275 31.4611C96.7046 30.9592 96.7134 30.4491 96.6537 29.9449ZM84.066 66.5456C84.1358 65.8077 84.1358 65.0648 84.066 64.327C83.9271 65.0577 83.9271 65.8082 84.066 66.539V66.5456ZM89.0434 100.79C89.0434 100.376 88.9059 100.238 88.9059 99.9562C88.6308 98.5712 88.2117 97.3306 87.9366 95.9391C86.9673 90.6879 86.2797 85.4039 85.723 79.9952C85.3104 75.1444 85.0288 70.4315 84.7537 65.5544C84.7537 64.3073 84.6162 63.0601 84.6162 61.813C84.3893 62.4818 84.2958 63.1888 84.3411 63.8937C84.2713 67.5023 84.4091 71.1119 84.7537 74.7046C85.0288 77.1989 85.3038 79.6932 85.4479 82.1941C85.998 87.7407 86.9673 93.2872 88.0676 98.8272C88.1636 99.5765 88.5181 100.268 89.0696 100.783L89.0434 100.79ZM90.2878 93.7204C90.2177 94.0405 90.2177 94.3719 90.2878 94.6919V93.7204C90.1737 93.2214 90.1274 92.7091 90.1503 92.1976C90.0758 92.1231 90.0275 92.0263 90.0127 91.9219C89.8752 90.3991 89.6001 88.8697 89.4626 87.209C89.1875 84.0189 88.9059 80.691 88.7684 77.5074C88.4933 73.208 88.2182 69.053 88.2182 64.7536C88.2646 63.2692 88.1725 61.7836 87.9432 60.3164C87.966 60.8279 87.9198 61.3401 87.8056 61.8392C87.8056 64.8915 87.9432 68.075 88.0807 71.1272C88.3558 75.4266 88.4933 79.8639 88.7749 84.1567C89.05 86.651 89.3251 89.1453 89.7442 91.5018C89.7442 91.9154 89.7442 92.1976 90.1568 92.1976C90.0075 92.429 89.9393 92.7037 89.9631 92.9782C89.9868 93.2528 90.101 93.5116 90.2878 93.7139V93.7204ZM90.7004 97.882C90.7172 98.9078 91.0041 99.9109 91.5322 100.79C91.4688 99.7695 91.185 98.775 90.7004 97.8754V97.882ZM90.8379 68.4951C91.113 63.7822 91.8072 59.0692 91.8072 54.2184C91.0746 58.936 90.7525 63.7085 90.8445 68.482L90.8379 68.4951ZM91.5322 17.342C91.6697 17.2042 91.8072 17.2042 91.8072 17.0663C91.8072 16.9285 91.8072 16.7906 91.6697 16.7906C91.6178 16.8452 91.5786 16.9105 91.5548 16.982C91.531 17.0535 91.5233 17.1293 91.5322 17.2042C91.3946 17.191 91.5322 17.3289 91.5322 17.3289V17.342ZM95.2652 101.21C95.1277 100.514 94.8526 99.9628 94.7151 99.4049C93.962 96.2087 93.4086 92.9685 93.0581 89.7033C92.6682 86.1132 92.4845 82.5036 92.508 78.8924C92.3705 77.5074 92.3705 76.1224 92.3705 74.7309C92.6455 72.2365 92.6455 69.8801 92.7831 67.5105C92.9206 64.5961 92.7831 61.8261 92.9206 58.9182V57.5332C92.5349 58.8366 92.3494 60.1911 92.3705 61.5504C92.2329 63.3555 92.3705 65.2919 92.2329 67.097C91.9584 69.7135 91.8207 72.3427 91.8203 74.9737C91.7938 80.6287 92.1131 86.2799 92.7765 91.8957C93.057 94.1829 93.4726 96.4514 94.0209 98.6894C94.0519 99.1692 94.1779 99.638 94.3916 100.068C94.6052 100.499 94.9022 100.883 95.2652 101.197V101.21ZM92.3639 96.904C92.0888 97.4554 92.5014 97.8755 92.5014 98.289C92.6775 99.6146 93.0026 100.916 93.4707 102.168C93.4707 102.582 93.7458 102.864 94.1649 102.582C94.5775 102.444 94.44 102.168 94.3025 101.886C93.8899 100.363 93.3332 98.8338 92.9206 97.2913C92.914 97.0418 92.639 96.904 92.3443 96.904H92.3639ZM92.5014 47.8317C92.5014 47.6938 92.5014 47.6938 92.3639 47.556V47.9695C92.3825 47.9696 92.401 47.9658 92.4181 47.9585C92.4352 47.9511 92.4507 47.9404 92.4635 47.9269C92.4764 47.9134 92.4864 47.8974 92.4929 47.8799C92.4994 47.8624 92.5023 47.8438 92.5014 47.8251V47.8317ZM93.1957 28.9799C92.9206 29.2556 92.7831 29.3935 92.9206 29.6757C93.1957 29.5379 93.1957 29.2491 93.1957 28.9734V28.9799ZM93.6083 27.7328C93.1957 27.5949 93.3332 27.8706 93.3332 28.1463C93.1957 28.2842 93.3332 28.2842 93.3332 28.2842C93.3851 28.2296 93.4243 28.1643 93.4481 28.0928C93.4718 28.0213 93.4796 27.9455 93.4707 27.8706L93.6083 27.7328V26.4856C93.5379 26.8962 93.5379 27.3157 93.6083 27.7262V27.7328ZM93.8833 25.1072C93.8833 25.1438 93.8978 25.1788 93.9236 25.2047C93.9494 25.2305 93.9844 25.245 94.0209 25.245C94.1584 25.245 94.1584 25.1072 94.1584 24.9694L94.0209 24.8315C94.0209 24.9431 93.8833 24.9431 93.8833 25.0941V25.1072ZM98.9983 18.1756C98.4482 18.727 98.5857 19.285 98.5857 19.8363C98.7666 19.6012 98.8972 19.3312 98.9693 19.0432C99.0414 18.7552 99.0535 18.4554 99.0048 18.1625L98.9983 18.1756Z" fill="#476930"/>
<path d="M120.853 102.168C120.296 101.755 120.021 102.306 119.884 102.444C119.471 102.995 119.052 103.553 118.227 103.415C116.982 104.249 115.319 103.553 113.937 104.111C113.67 104.223 113.38 104.269 113.092 104.245C112.803 104.221 112.525 104.128 112.28 103.973C111.448 103.278 110.479 103.56 109.66 103.14C108.691 103.691 108.141 102.726 107.584 102.168C105.783 100.783 104.676 98.8404 103.714 96.7596C102.372 93.3341 101.491 89.745 101.094 86.0866C100.4 82.0694 100.544 78.0457 100.544 74.0285C100.583 69.8584 101.179 65.7123 102.319 61.7014C103.189 58.0391 105.113 54.7135 107.853 52.1377C108.479 51.4637 109.175 50.8586 109.929 50.3326C110.378 49.9878 110.917 49.7787 111.48 49.7299C112.044 49.6811 112.61 49.7945 113.112 50.0569C113.524 50.3326 114.219 50.3326 114.219 50.1947C114.769 49.0854 115.463 49.499 116.295 49.499C116.57 49.499 116.57 49.3611 116.707 49.2233C117.004 48.8598 117.383 48.5737 117.814 48.3897C118.019 48.2544 118.26 48.1823 118.505 48.1823C118.751 48.1823 118.991 48.2544 119.196 48.3897C119.861 48.7697 120.555 49.0946 121.272 49.3611C122.654 49.9125 123.486 50.884 124.455 51.9867C126.112 53.7918 127.075 56.0039 128.051 58.3603C129.708 62.7976 130.015 67.2348 129.708 71.9478C129.328 77.9794 128.403 83.9641 126.944 89.828C126.284 92.1339 125.499 94.4018 124.593 96.6217C124.043 97.8689 123.211 99.1161 122.517 100.363C122.242 100.777 122.242 101.473 121.547 101.748L120.716 102.162C120.853 102.024 120.991 102.024 120.991 101.886C121.128 101.886 121.266 101.748 121.128 101.61C120.991 101.61 120.853 101.61 120.853 101.748C120.821 101.773 120.794 101.804 120.776 101.841C120.758 101.877 120.748 101.918 120.748 101.958C120.748 101.999 120.758 102.039 120.776 102.076C120.794 102.112 120.821 102.144 120.853 102.168ZM102.869 77.3565H102.731V77.6322C102.749 77.6322 102.767 77.6286 102.784 77.6217C102.801 77.6147 102.816 77.6046 102.829 77.5918C102.841 77.579 102.851 77.5638 102.858 77.5471C102.865 77.5304 102.869 77.5124 102.869 77.4943V77.3565ZM106.877 97.5932C106.739 97.5932 106.602 97.4554 106.602 97.1797C106.052 95.9325 105.633 94.5541 105.22 93.3004C104.72 91.6228 104.349 89.9088 104.113 88.1739C103.692 86.1637 103.414 84.1259 103.281 82.076C103.102 82.8479 103.055 83.6448 103.144 84.4324C103.367 86.8595 103.736 89.2707 104.251 91.6528C104.768 94.3485 105.649 96.961 106.87 99.418C107.421 100.527 108.39 100.941 109.084 101.637C109.222 101.774 109.359 101.774 109.641 101.499C108.809 100.389 108.259 99.0045 107.427 97.7573C107.152 97.4816 107.015 97.4816 106.877 97.7573V97.5932ZM104.788 86.0866C103.927 77.494 104.819 68.8157 107.407 60.579C104.532 66.4012 103.563 78.3279 104.788 86.0866ZM104.788 88.5809C104.925 88.2999 104.996 87.9912 104.996 87.6783C104.996 87.3655 104.925 87.0568 104.788 86.7758C104.65 87.4716 104.925 88.0229 104.788 88.5809C104.925 88.7187 105.063 88.8566 105.063 88.9944C105.475 91.0752 105.895 93.0116 106.307 95.0923C106.31 95.3067 106.361 95.5177 106.456 95.7098C106.552 95.9018 106.689 96.0699 106.857 96.2017C106.802 95.5841 106.663 94.9768 106.445 94.3966L105.2 88.9879C105.202 88.9349 105.192 88.8823 105.171 88.8336C105.15 88.7849 105.119 88.7413 105.08 88.7058C105.041 88.6703 104.994 88.6437 104.944 88.6278C104.893 88.6119 104.84 88.6071 104.788 88.6137V88.5809ZM112.536 51.8226C111.704 51.9605 111.016 52.2361 110.735 52.9319C110.482 53.5909 110.051 54.1661 109.49 54.5926C107.856 55.9219 106.731 57.7774 106.307 59.8438L107.139 58.5966C107.833 57.4873 108.521 56.2402 109.628 55.5444C111.036 54.6189 111.448 53.096 112.555 51.8554L112.536 51.8226ZM106.864 97.7114C107.414 97.8492 107.277 98.545 107.414 98.9585C107.228 98.7813 107.082 98.5657 106.987 98.3266C106.892 98.0875 106.85 97.8305 106.864 97.5735V97.7114ZM112.948 88.9813L112.536 86.487C112.38 87.3506 112.535 88.2416 112.974 89.001L112.948 88.9813ZM113.957 55.3146C112.987 56.0104 112.575 56.6996 112.575 57.5333C113.085 56.8257 113.546 56.0844 113.957 55.3146ZM121.685 56.9753C121.239 57.1576 120.776 57.2961 120.303 57.3889C119.471 57.1132 119.334 57.6645 119.059 58.2225C119.031 58.5176 118.937 58.8025 118.784 59.0561C117.222 62.2273 116.06 65.5811 115.326 69.0399C114.168 74.7391 113.704 80.5578 113.944 86.3688C114.081 88.1739 114.356 89.8346 114.638 91.62C114.822 92.6501 115.198 93.6364 115.745 94.5278C117.264 90.7864 118.233 86.9005 119.478 83.159L118.646 88.1477C119.34 86.487 119.753 84.8197 120.303 83.159C121.96 77.1989 123.211 71.2389 122.923 64.9965C122.78 62.2879 122.365 59.6006 121.685 56.9753ZM116.982 56.2795C116.707 56.4174 116.57 56.6931 116.845 57.251C116.845 56.8375 117.231 56.5618 116.982 56.2861V56.2795ZM120.991 84.2815C120.716 84.1436 120.716 84.2815 120.716 84.4193C120.44 86.2244 119.884 87.8851 119.471 89.5458C118.777 92.0401 117.952 94.3966 117.258 96.8909C117.221 96.8909 117.186 96.9054 117.16 96.9313C117.135 96.9571 117.12 96.9922 117.12 97.0287C117.12 97.3044 117.12 97.4423 117.395 97.5801C117.467 97.5755 117.534 97.5449 117.584 97.4942C117.635 97.4435 117.666 97.376 117.67 97.3044C117.945 96.753 118.083 96.3329 118.364 95.7816C118.639 94.9479 118.502 93.9765 118.915 93.156C119.816 90.6286 120.511 88.0315 120.991 85.3908C120.997 84.9773 121.161 84.5637 120.997 84.288L120.991 84.2815ZM123.067 86.9071C123.691 85.3991 124.109 83.8139 124.311 82.1941C123.686 83.7062 123.268 85.2959 123.067 86.9202V86.9071ZM125.143 88.0164C125.471 87.3695 125.658 86.6603 125.693 85.9356C125.318 86.5683 125.127 87.2937 125.143 88.0295V88.0164ZM126.25 87.3206C125.975 88.5678 125.837 89.8149 125.555 90.9242C126.106 90.2284 126.106 89.4014 126.387 88.4299C126.469 88.0596 126.421 87.6722 126.25 87.3337V87.3206Z" fill="#476930"/>
<path d="M164.006 43.5323C164.006 42.423 164.419 41.1758 164.419 40.0665C163.449 41.7272 163.037 43.6701 161.93 45.193C161.93 44.9173 162.067 44.4972 162.067 44.0837C162.694 42.0062 163.111 39.871 163.312 37.7101C163.335 36.6907 163.289 35.6709 163.174 34.6578C163.194 34.4635 163.146 34.2684 163.037 34.1064C161.517 32.8593 160.685 31.0542 159.854 29.3935C159.579 28.6977 159.991 28.2842 160.266 27.8707C160.404 27.4571 160.679 26.7613 161.373 27.1749C161.786 27.4506 161.786 27.1749 161.923 26.8992C162.02 26.6968 162.182 26.5323 162.382 26.4314C162.582 26.3304 162.81 26.2988 163.03 26.3413C163.724 26.4791 164.274 26.4791 164.831 26.6169C166.076 26.7548 167.182 27.3127 168.289 27.5884C169.534 28.0019 170.365 28.9734 171.335 29.807C171.995 30.4108 172.494 31.1718 172.783 32.0196C173.073 32.8675 173.144 33.7748 172.992 34.6578V35.905C173.319 37.4726 173.224 39.0993 172.716 40.6179C171.791 43.3305 170.488 45.8983 168.846 48.2452C168.708 48.3831 168.571 48.6588 168.433 48.7966C168.368 48.8448 168.315 48.9077 168.279 48.9801C168.243 49.0524 168.224 49.1324 168.224 49.2134C168.224 49.2945 168.243 49.3744 168.279 49.4468C168.315 49.5192 168.368 49.582 168.433 49.6302C170.346 51.5082 171.977 53.6553 173.273 56.0039C175.606 59.766 176.49 64.2511 175.762 68.6198C175.056 73.5434 173.852 78.382 172.166 83.0606C171.251 86.0703 169.957 88.9509 168.315 91.6331C167.565 92.8435 166.733 94.0014 165.827 95.0989C164.794 96.4099 163.685 97.6592 162.506 98.8404C161.647 99.6544 160.723 100.396 159.742 101.059C158.918 101.647 158.041 102.157 157.123 102.582C156.274 102.976 155.547 103.593 155.02 104.367C154.883 104.643 154.745 104.643 154.47 104.505C154.058 103.954 153.776 104.367 153.501 104.643C153.088 105.056 152.807 105.477 152.394 105.89C151.7 106.999 151.012 108.247 150.318 109.356C149.905 110.189 150.043 110.327 151.012 110.327C152.207 110.209 153.408 110.163 154.608 110.189C160.83 110.226 167.019 111.11 173.005 112.815C177.304 114.023 181.37 115.944 185.036 118.499C186.227 119.371 187.297 120.397 188.219 121.552C190.183 123.77 190.432 126.147 189.463 128.772C189.188 129.606 188.913 130.295 188.631 130.991C188.026 132.757 187.19 134.435 186.142 135.979C185.036 137.949 183.379 139.307 181.853 140.83C181.287 141.466 180.686 142.069 180.052 142.635C179.777 142.773 179.501 143.049 179.639 143.331C179.639 143.469 179.639 143.607 179.501 143.607C178.395 143.193 177.982 144.158 177.15 144.578L176.738 144.992C177.15 145.405 177.288 144.854 177.569 144.992C177.707 144.992 177.844 144.992 177.844 145.13C177.982 145.267 177.845 145.267 177.707 145.405C177.569 145.681 176.875 144.992 177.013 145.819C177.013 146.37 176.319 145.957 176.181 146.515H175.906C175.631 145.819 176.456 145.963 176.6 145.405C176.234 145.336 175.859 145.336 175.493 145.405C174.26 146.254 172.91 146.917 171.485 147.374C170.443 147.687 169.379 147.919 168.302 148.07C168.017 148.065 167.736 148.141 167.492 148.288C167.247 148.435 167.049 148.649 166.92 148.904C166.645 148.904 166.37 148.766 165.951 148.766C165.814 148.766 165.676 149.042 165.676 149.18C165.681 149.251 165.711 149.319 165.762 149.369C165.812 149.42 165.88 149.451 165.951 149.455V149.317C165.951 150.013 165.538 150.013 165.119 150.013C163.456 149.6 161.799 149.737 160.142 149.737C158.76 149.737 157.378 149.324 155.99 149.324C154.582 149.18 153.192 148.901 151.837 148.49C148.09 147.439 144.908 144.948 142.983 141.559C142.845 141.283 142.708 141.145 142.983 140.863C143.12 140.587 142.845 140.312 142.708 140.029C142.295 139.334 142.014 138.782 141.601 138.06C141.145 137.265 140.953 136.346 141.051 135.435C141.051 131.555 142.433 128.503 145.478 126.147C145.917 125.683 146.503 125.389 147.135 125.313C147.329 125.333 147.524 125.284 147.685 125.175C148.93 124.204 150.305 124.624 151.556 125.037C152.904 125.266 154.128 125.963 155.014 127.006C155.426 127.558 155.708 128.116 155.289 128.811C154.87 129.507 154.595 130.334 154.182 131.03C154.027 131.332 153.934 131.663 153.907 132.002C153.632 134.772 154.739 136.99 156.671 138.795C156.889 138.951 157.145 139.046 157.412 139.07C157.679 139.094 157.947 139.047 158.19 138.933C160.089 138.338 161.94 137.597 163.724 136.715C166.753 135.258 169.476 133.235 171.747 130.754C173.267 129.094 174.655 127.426 175.343 125.208C175.615 124.31 175.754 123.376 175.755 122.438C175.739 122.01 175.581 121.6 175.306 121.273C175.031 120.946 174.654 120.72 174.236 120.633C173.07 120.255 171.863 120.022 170.64 119.937C170.503 119.937 170.365 119.799 170.228 119.661C169.953 119.661 169.678 119.386 169.396 119.386C167.32 119.523 165.388 118.972 163.312 118.972C161.835 118.882 160.353 118.928 158.884 119.11C157.915 119.11 156.92 119.386 155.977 119.386C155.398 119.374 154.826 119.517 154.32 119.799H153.907C152.106 119.661 150.449 120.351 148.668 120.075C147.973 119.937 147.286 120.213 146.703 120.075C145.871 120.075 145.046 120.351 144.352 120.213C143.567 120.082 142.815 119.798 142.138 119.379C141.306 118.966 140.481 118.966 139.787 118.545C139.575 118.377 139.341 118.238 139.093 118.132C138.542 117.464 137.876 116.899 137.128 116.465C136.715 116.327 136.578 115.913 136.434 115.493C136.434 115.08 136.159 114.797 135.884 114.384C135.729 114.221 135.622 114.018 135.574 113.799C135.525 113.579 135.537 113.35 135.608 113.137C135.944 111.606 136.554 110.149 137.409 108.837C138.787 106.463 140.46 104.273 142.387 102.319L142.8 101.906C139.834 99.7244 137.552 96.7386 136.224 93.3004C134.976 90.2368 134.139 87.0208 133.735 83.7367C133.274 79.0292 133.366 74.2837 134.01 69.5979C134.729 63.9566 136.715 58.5524 139.82 53.7918C141.896 50.6017 144.404 47.8317 147.679 46.0266C150.298 44.7795 152.794 44.7795 155.289 46.4401C155.564 46.578 155.702 46.7158 155.983 46.8537C157.281 47.0307 158.49 47.6116 159.441 48.5144C160.135 49.0657 160.135 49.0657 160.685 48.2387C161.861 46.9346 162.796 45.4323 163.449 43.8014C163.587 43.6636 163.587 42.9678 163.999 43.5257C163.862 44.6351 163.168 45.6065 163.168 46.8537C163.909 45.6895 164.337 44.3533 164.412 42.9744C164.312 43.1837 164.174 43.3728 164.006 43.5323ZM136.624 113.399C136.624 113.261 136.624 113.124 136.349 113.124C136.211 112.986 136.073 113.261 136.073 113.399C136.211 113.537 136.073 113.813 136.486 113.813C136.624 113.813 136.624 113.675 136.624 113.399ZM142.983 106.054C141.018 107.721 139.938 109.52 140.075 110.491C141.051 108.962 142.014 107.577 142.983 106.054ZM141.326 56.8244C142.57 54.6057 144.646 52.945 146.028 50.8643C143.952 52.4002 142.151 54.2053 141.326 56.8375V56.8244ZM144.227 109.645C143.952 109.92 143.396 110.196 143.677 110.754C143.854 110.633 143.998 110.469 144.094 110.278C144.191 110.086 144.236 109.872 144.227 109.658V109.645ZM144.64 131.273C144.498 131.385 144.394 131.539 144.345 131.714C144.296 131.888 144.303 132.074 144.365 132.244C144.784 131.837 144.784 131.7 144.646 131.28L144.64 131.273ZM148.235 52.6694C146.853 53.6408 144.777 56.9688 144.64 58.3538C145.891 56.4502 147.135 54.481 148.242 52.6759L148.235 52.6694ZM146.441 129.205C146.028 129.757 144.921 130.039 145.059 131.175C145.611 130.588 146.076 129.924 146.441 129.205ZM145.891 80.9601C146.028 82.4829 146.028 84.0124 146.166 85.3974C146.405 87.8317 147.012 90.2155 147.967 92.4667C148.936 94.4359 149.932 96.0704 151.562 97.3175C152.669 98.289 152.807 98.289 153.776 97.3175L153.907 97.1469C156.462 94.4835 158.522 91.3849 159.991 87.9967C161.74 83.9843 163.083 79.8062 163.999 75.5251C165.244 70.1164 166.213 64.5764 165.964 59.0299C165.965 56.9783 165.541 54.9489 164.72 53.0698C164.445 52.374 164.307 52.2361 163.475 52.5184C163.137 52.545 162.808 52.6388 162.506 52.7941C161.674 53.3455 160.987 53.0698 160.155 52.6562C159.88 52.3805 159.742 52.1049 159.323 52.2427C158.911 52.5184 158.629 52.1049 158.354 51.967C158.079 51.6913 157.797 51.2712 157.385 51.4156C156.62 51.4583 155.891 51.7511 155.309 52.2493C154.064 53.4964 152.689 54.6057 152.263 56.5487C151.9 57.2719 151.484 57.9673 151.019 58.6295C149.674 61.2361 148.607 63.9774 147.836 66.8082C146.938 69.9731 146.383 73.2257 146.179 76.5097C146.048 78.0457 146.048 79.4241 145.891 80.9601ZM151.13 53.6474C148.779 56.273 147.535 59.3318 146.428 62.5219C147.807 59.4649 149.382 56.5005 151.143 53.6474H151.13ZM148.085 108.68C147.253 109.513 147.115 109.789 147.253 110.649C147.596 110.022 147.881 109.365 148.104 108.686L148.085 108.68ZM149.886 125.037C148.968 125.219 148.139 125.707 147.535 126.422C148.668 126.429 149.074 125.319 149.899 125.044L149.886 125.037ZM147.921 62.791C149.997 59.1874 151.792 55.4459 154.424 52.118C151.942 53.3717 149.074 58.6426 147.967 62.7976L147.921 62.791ZM152.211 104.932C150.604 106.398 149.411 108.264 148.753 110.34C149.899 108.549 151.006 106.743 152.25 104.945L152.211 104.932ZM153.043 131.411C153.68 130.783 154.072 129.947 154.149 129.054C153.776 129.757 153.082 130.452 153.082 131.417L153.043 131.411ZM165.63 78.899C164.798 79.7326 164.661 80.8682 164.386 81.9513C163.818 83.9792 163.124 85.9698 162.31 87.9113C161.797 88.9191 161.425 89.9924 161.203 91.1014C163.868 87.3337 164.7 83.1787 165.696 78.8793L165.63 78.899ZM161.34 29.6692C161.379 30.0948 161.576 30.4904 161.891 30.7785C161.906 30.5654 161.868 30.3517 161.778 30.1577C161.689 29.9636 161.552 29.7955 161.38 29.6692H161.34ZM162.722 28.8356C163.554 29.1112 163.417 28.5599 163.554 28.2842C163.692 27.7328 163.279 27.5884 162.86 27.5884C162.447 27.4506 162.31 27.5884 162.31 28.0019C162.292 28.1703 162.326 28.34 162.407 28.4888C162.488 28.6375 162.611 28.7584 162.762 28.8356H162.722ZM164.687 37.0143C164.651 37.0143 164.616 37.0288 164.59 37.0547C164.564 37.0805 164.55 37.1156 164.55 37.1521C164.55 37.29 164.412 37.5657 164.687 37.4278C164.838 37.4147 164.7 37.1521 164.7 37.0143H164.687ZM164.825 38.675C164.685 39.3615 164.685 40.0692 164.825 40.7557C164.965 40.4273 165.039 40.074 165.041 39.7167C165.043 39.3593 164.974 39.0051 164.838 38.675H164.825ZM166.901 149.442L167.038 149.58C166.626 149.993 166.207 149.856 165.931 149.304V149.442C166.22 149.304 166.639 149.442 166.914 149.442H166.901ZM166.901 148.891C167.038 149.304 167.732 148.891 167.87 149.442C167.595 149.718 167.457 149.856 167.038 149.58L166.901 149.442V148.891ZM167.051 42.6659C167.14 42.6489 167.223 42.6118 167.294 42.5573C167.366 42.5028 167.424 42.4324 167.464 42.3517C167.504 42.2709 167.525 42.182 167.525 42.0919C167.525 42.0018 167.504 41.9129 167.464 41.8322C167.355 42.1234 167.217 42.4027 167.051 42.6659ZM168.433 79.4241C167.914 80.2028 167.625 81.1133 167.601 82.0497C168.044 81.2361 168.327 80.3447 168.433 79.4241ZM170.647 148.74C170.234 149.436 169.265 149.153 168.846 149.711C168.708 149.849 168.433 149.573 168.296 149.436C168.158 149.298 168.296 149.022 168.433 148.74C168.571 148.602 168.708 148.464 168.846 148.602C169.121 149.015 169.258 148.74 169.54 148.602C169.953 148.464 170.372 148.051 170.509 148.74H170.647ZM169.265 88.0229C171.754 83.5857 172.998 78.5971 174.105 73.5822C172.448 78.4658 171.066 83.3166 169.265 88.0295V88.0229ZM171.23 38.2549C170.68 39.502 170.26 40.7492 169.848 41.9963C169.985 41.9963 169.985 41.9963 170.123 42.1342C170.751 40.934 171.12 39.6143 171.204 38.2614L171.23 38.2549ZM170.398 44.0771C170.948 43.8014 170.948 43.2435 171.092 42.83C171.759 41.4825 172.181 40.0265 172.337 38.5306C172.028 39.0598 171.778 39.621 171.59 40.2044C171.315 41.5894 170.621 42.83 170.346 44.0837C170.203 44.1664 170.087 44.2897 170.014 44.438C169.94 44.5863 169.912 44.7531 169.933 44.9173C170.372 44.6351 170.372 44.4972 170.372 44.0837L170.398 44.0771ZM169.985 82.8965C170.696 81.4957 171.207 80.0021 171.505 78.4592C170.784 79.8604 170.264 81.3563 169.959 82.903L169.985 82.8965ZM170.536 148.746C171.086 148.333 171.086 148.333 171.505 149.022L171.367 148.884C171.367 148.746 171.23 148.884 171.092 148.884C170.817 149.022 170.68 149.022 170.68 148.746H170.536ZM173.856 147.499C173.856 148.051 173.306 148.051 173.024 148.195C172.474 148.471 171.78 148.333 171.367 148.891L171.505 149.029C171.505 148.477 171.092 147.919 172.055 148.057C172.193 148.057 172.33 147.781 172.605 147.644C172.768 147.494 172.974 147.399 173.194 147.373C173.414 147.347 173.636 147.391 173.83 147.499H173.856ZM174.55 147.086C174.55 147.637 174.275 147.781 173.856 147.499C173.856 146.943 174.133 146.806 174.688 147.086H174.55ZM174.413 72.2563C174.55 71.9806 174.55 71.8427 174.413 71.7049V72.2563ZM175.932 146.56C175.776 146.772 175.563 146.936 175.319 147.033C175.075 147.13 174.809 147.158 174.55 147.112H174.688C174.799 146.377 175.212 146.252 175.906 146.534L175.932 146.56ZM177.288 128.654C177.838 128.24 178.257 127.82 177.982 126.993C177.772 127.174 177.627 127.418 177.569 127.689C177.413 127.989 177.317 128.317 177.288 128.654ZM186.968 131.562C187.197 131.327 187.366 131.04 187.462 130.726C187.557 130.412 187.577 130.08 187.518 129.757C187.249 130.452 186.83 130.866 186.968 131.562ZM189.044 126.967C189.044 126.409 189.181 126.133 188.906 125.72C188.618 126.153 188.618 126.429 189.044 126.987V126.967Z" fill="#476930"/>
</g>
<defs>
<clipPath id="clip0_78_48">
<rect width="190" height="150" fill="white"/>
</clipPath>
</defs>
</svg>
