<svg width="27" height="21" viewBox="0 0 27 21" fill="none" xmlns="http://www.w3.org/2000/svg">
<g clip-path="url(#clip0_73_30)">
<path d="M23.7043 0H3.29924C2.42452 0.00103611 1.5859 0.380777 0.967374 1.0559C0.348852 1.73103 0.000949238 2.6464 0 3.60117L0 16.4088C0.000949238 17.3636 0.348852 18.279 0.967374 18.9541C1.5859 19.6292 2.42452 20.009 3.29924 20.01H23.7043C24.5791 20.009 25.4177 19.6292 26.0362 18.9541C26.6547 18.279 27.0026 17.3636 27.0036 16.4088V3.60117C27.0026 2.6464 26.6547 1.73103 26.0362 1.0559C25.4177 0.380777 24.5791 0.00103611 23.7043 0V0ZM22.0906 2.34859L13.4839 8.38839L4.90942 2.34859H22.0906ZM23.7043 17.6614H3.29924C2.99489 17.6614 2.703 17.5294 2.48779 17.2945C2.27258 17.0596 2.15168 16.741 2.15168 16.4088V3.66772L12.8384 11.1676L12.8814 11.191L12.928 11.2184C13.0089 11.2651 13.0943 11.3019 13.1826 11.328H13.2113C13.3064 11.3533 13.4039 11.3665 13.5018 11.3672V11.3672C13.5997 11.3667 13.6972 11.3536 13.7923 11.328H13.821C13.9093 11.3018 13.9946 11.2651 14.0756 11.2184L14.1222 11.191L14.1652 11.1676L24.8519 3.66772V16.4088C24.8519 16.741 24.731 17.0596 24.5158 17.2945C24.3006 17.5294 24.0087 17.6614 23.7043 17.6614V17.6614Z" fill="black" fill-opacity="0.3"/>
</g>
<defs>
<clipPath id="clip0_73_30">
<rect width="27" height="20.01" fill="white"/>
</clipPath>
</defs>
</svg>
