<svg width="21" height="21" viewBox="0 0 21 21" fill="none" xmlns="http://www.w3.org/2000/svg">
<g clip-path="url(#clip0_94_24)">
<path d="M4.66013 6.44055H0.64108C0.462708 6.44055 0.318176 6.58515 0.318176 6.76346V19.6749C0.318176 19.8533 0.462708 19.9978 0.64108 19.9978H4.66013C4.8385 19.9978 4.98303 19.8533 4.98303 19.6749V6.76346C4.98303 6.58515 4.8385 6.44055 4.66013 6.44055Z" fill="black" fill-opacity="0.3"/>
<path d="M2.65207 0.0219727C1.1897 0.0219727 0 1.21039 0 2.67114C0 4.13253 1.1897 5.3214 2.65207 5.3214C4.11327 5.3214 5.30201 4.13247 5.30201 2.67114C5.30207 1.21039 4.11327 0.0219727 2.65207 0.0219727Z" fill="black" fill-opacity="0.3"/>
<path d="M14.8829 6.11963C13.2687 6.11963 12.0754 6.81355 11.3517 7.60201V6.76343C11.3517 6.58513 11.2072 6.44053 11.0288 6.44053H7.17984C7.00147 6.44053 6.85693 6.58513 6.85693 6.76343V19.6749C6.85693 19.8533 7.00147 19.9978 7.17984 19.9978H11.1901C11.3685 19.9978 11.513 19.8533 11.513 19.6749V13.2867C11.513 11.1341 12.0977 10.2954 13.5983 10.2954C15.2326 10.2954 15.3625 11.6399 15.3625 13.3975V19.675C15.3625 19.8533 15.507 19.9979 15.6854 19.9979H19.6971C19.8755 19.9979 20.02 19.8533 20.02 19.675V12.5928C20.02 9.39187 19.4097 6.11963 14.8829 6.11963Z" fill="black" fill-opacity="0.3"/>
</g>
<defs>
<clipPath id="clip0_94_24">
<rect width="20.02" height="20.02" fill="white"/>
</clipPath>
</defs>
</svg>
