<svg width="277" height="145" viewBox="0 0 277 145" fill="none" xmlns="http://www.w3.org/2000/svg">
<g clip-path="url(#clip0_41_162)">
<path d="M36.3216 88.2202C35.3994 89.2757 31.4489 94.6907 24.7254 104.334C25.1242 107.9 25.5479 111.336 26.1711 114.921C26.8316 118.225 27.4858 121.391 28.408 124.564C28.9507 126.324 29.6107 128.045 30.3833 129.717C30.49 130.034 30.6212 130.344 30.7759 130.641C30.9676 131.374 31.3283 132.053 31.829 132.621C31.9 132.629 31.972 132.622 32.0399 132.599C32.1077 132.577 32.1697 132.539 32.2215 132.49C32.3524 132.359 32.3524 132.359 32.4832 132.359L32.7449 132.096C33.798 131.703 34.4585 132.096 34.7202 133.152V133.545C34.7202 133.808 34.7202 133.939 34.5894 134.076C34.4585 134.213 34.3276 134.47 34.1968 134.607C34.0659 134.744 34.0659 135 33.9351 135.269H33.8042C33.6734 135.531 33.6734 135.8 33.5425 135.931C33.4533 136.069 33.3372 136.187 33.2012 136.278C33.0652 136.369 32.9121 136.432 32.7512 136.462L32.2215 136.724L31.9598 136.987C30.4129 137.907 28.5705 138.191 26.8191 137.78C26.0183 137.676 25.276 137.304 24.713 136.724C23.2727 135.365 22.0309 133.809 21.0241 132.102C18.6442 127.944 16.7858 123.508 15.4909 118.893C14.0567 114.07 12.8692 109.178 11.9329 104.234C11.914 103.96 11.7969 103.703 11.6034 103.509C11.4099 103.315 11.1529 103.198 10.8798 103.179H10.6181C9.57709 103.055 8.55807 102.788 7.58974 102.385C7.40326 102.406 7.21555 102.36 7.06009 102.254C6.87361 102.275 6.6859 102.228 6.53044 102.123C6.39959 101.992 6.26874 101.992 6.13788 101.861C6.07203 101.788 5.98154 101.741 5.88379 101.731C5.78604 101.721 5.68791 101.747 5.60823 101.805C5.47738 101.936 5.47738 101.936 5.47738 101.805C5.34652 101.805 5.34652 101.805 5.34652 101.673C5.34652 101.542 5.34652 101.542 5.21567 101.411C5.08481 101.411 5.08481 101.411 5.08481 101.28C4.98512 101.18 4.98512 101.18 4.98512 101.03C4.85426 101.03 4.85426 101.03 4.85426 100.899C4.79932 100.431 4.56182 100.005 4.19376 99.7123C3.86628 99.4433 3.50357 99.2205 3.11577 99.0502L2.98491 98.9191C1.89278 98.2772 1.09107 97.2363 0.747928 96.0148C0.617073 95.8837 0.617073 95.7525 0.486219 95.6214C-0.435993 93.6415 -0.0434296 91.9239 1.67014 90.6248C3.90713 89.0384 6.2812 87.5894 8.78612 86.1341C9.02299 86.0302 9.2121 85.8407 9.31577 85.6033C9.43566 85.4049 9.48199 85.1705 9.44663 84.9412C9.05406 80.844 8.91698 76.622 8.91698 72.5248C9.04783 68.2965 9.17869 64.0744 9.44663 59.846C9.42071 59.0962 9.46452 58.3455 9.57748 57.6038C9.70834 56.1486 9.83919 54.8307 9.83919 53.3755V52.6947C9.70834 52.6947 9.70834 52.6947 9.57748 52.5636H9.31577C9.264 52.5141 9.20197 52.4767 9.13411 52.454C9.06625 52.4313 8.99424 52.4239 8.92321 52.4324C8.79235 52.4324 8.79235 52.5636 8.6615 52.6947C8.60973 52.7442 8.5477 52.7816 8.47984 52.8043C8.41198 52.8269 8.33997 52.8343 8.26894 52.8259C8.13808 52.8259 8.13808 52.8259 8.00723 52.6947H7.87637C7.63966 52.5937 7.41751 52.4614 7.21587 52.3012L6.68622 51.7703C6.54139 51.7044 6.38417 51.6703 6.22512 51.6703C6.06606 51.6703 5.90884 51.7044 5.76401 51.7703L5.60823 51.6392C5.47738 51.6392 5.47738 51.6392 5.34652 51.508C5.31673 51.4847 5.29264 51.4548 5.27607 51.4207C5.2595 51.3866 5.25089 51.3492 5.25089 51.3113C5.25089 51.2734 5.2595 51.2359 5.27607 51.2019C5.29264 51.1678 5.31673 51.1379 5.34652 51.1145C5.35494 51.0434 5.34758 50.9712 5.32496 50.9032C5.30234 50.8351 5.26502 50.773 5.21567 50.7211C5.09728 50.5899 4.98512 50.5899 4.83557 50.4525C4.67467 50.4223 4.52157 50.3597 4.38554 50.2685C4.24951 50.1772 4.13339 50.0592 4.04421 49.9216C3.89853 49.6803 3.80907 49.4092 3.7825 49.1284C3.89148 48.6071 3.93543 48.0742 3.91336 47.542C3.88496 47.0531 3.92905 46.5627 4.04421 46.0868C4.40991 44.1678 5.12377 42.3324 6.15034 40.6718C6.9417 39.3539 7.73306 38.0298 8.64281 36.5746L9.69587 34.7009C9.62484 34.6924 9.55283 34.6998 9.48497 34.7225C9.41711 34.7452 9.35508 34.7826 9.30331 34.832H9.17246C9.56502 34.17 9.83296 33.5142 10.2255 32.9583L10.3564 32.8272C10.4872 32.696 10.6181 32.4337 10.7489 32.2963L11.9329 30.7099C12.9704 29.6298 13.6269 28.2391 13.8022 26.7501V26.1505C14.0225 24.1264 14.4634 22.1325 15.117 20.2046C15.6302 18.6975 16.0669 17.1654 16.4255 15.614L17.2169 12.4475C17.7665 10.9726 18.6721 9.65727 19.8527 8.61886C20.2174 8.29866 20.6857 8.12215 21.1706 8.12215C21.6554 8.12215 22.1237 8.29866 22.4884 8.61886C22.6193 8.75002 22.7502 8.75002 22.881 8.88118V9.27465L23.0119 9.40581V9.66813H23.1427V9.53697C23.2736 9.40581 23.2736 9.27465 23.4044 9.1435C23.4044 9.01234 23.5353 8.88118 23.6661 8.75002C23.797 8.61886 23.9278 8.61886 24.1958 8.61886C24.5546 8.72809 24.9063 8.8595 25.2488 9.01234C25.4213 9.28037 25.5242 9.58741 25.5479 9.90547C25.6141 10.0505 25.6483 10.2082 25.6483 10.3677C25.6483 10.5271 25.6141 10.6848 25.5479 10.8298C25.4822 10.975 25.4482 11.1326 25.4482 11.292C25.4482 11.4514 25.4822 11.609 25.5479 11.7542C25.8107 11.4669 25.9515 11.0883 25.9405 10.6987L26.2022 10.3052C26.3331 9.91172 26.5948 9.77431 26.9936 10.0429C27.5394 10.3939 27.982 10.8846 28.2755 11.4643C28.5691 12.044 28.703 12.6917 28.6635 13.3406L28.9252 12.5474C28.9368 12.1619 29.0748 11.7909 29.3178 11.4919C29.4399 11.6971 29.5282 11.9206 29.5795 12.1539C29.6 12.3408 29.5537 12.529 29.4486 12.6848C29.3829 12.83 29.3489 12.9876 29.3489 13.147C29.3489 13.3064 29.3829 13.464 29.4486 13.6092C30.188 13.3376 30.8944 12.9835 31.5548 12.5536L31.6856 12.4225C38.0076 8.04452 44.9354 4.6188 52.2485 2.2545C56.3723 0.842398 60.6902 0.0817433 65.0473 -0.000198373C68.2436 -0.0303693 71.4162 0.55263 74.394 1.71737C76.4431 2.65703 78.2474 4.05935 79.6656 5.81454C81.4091 7.54647 82.7996 9.60207 83.7594 11.8666C84.98 14.4574 85.4362 17.3439 85.0742 20.1859C84.4292 23.9943 83.2304 27.6873 81.5162 31.1471C80.3448 33.408 79.0279 35.6606 77.5657 37.9049C77.4348 38.0361 77.4348 38.1672 77.304 38.2984C75.9892 40.4094 74.5373 42.3956 73.0855 44.3754C72.425 45.2998 71.7707 46.093 71.1102 47.0174C68.8732 50.1902 66.4991 53.3568 63.9942 56.3859C61.7572 59.159 59.3831 62.0632 57.0091 64.8363L51.2141 71.438C50.5536 72.3624 49.7622 73.1556 48.9771 74.08C48.5505 74.538 48.155 75.0242 47.7932 75.5352L44.1043 79.7635C43.1821 80.8191 42.1291 81.8746 41.076 82.9363L37.518 86.8961C37.113 87.2958 36.7204 87.8267 36.3216 88.2202ZM5.09105 91.6553C6.07825 91.1918 7.00871 90.6154 7.86391 89.9378L9.44663 88.8822L9.57748 88.7511V88.6199C9.62684 88.568 9.66415 88.5059 9.68677 88.4378C9.70939 88.3698 9.71675 88.2976 9.70834 88.2264C9.57748 88.0953 9.57748 88.0953 9.44663 88.0953C9.31577 88.0953 9.31577 88.0953 9.31577 88.2264C9.24474 88.218 9.17273 88.2254 9.10487 88.2481C9.03701 88.2707 8.97498 88.3081 8.92321 88.3576C8.57588 88.4534 8.25854 88.636 8.001 88.8885C7.51954 89.4006 6.93561 89.805 6.28743 90.0752C5.96163 90.2009 5.67747 90.4156 5.46712 90.6948C5.25678 90.9741 5.12866 91.3068 5.09728 91.6553H5.09105ZM12.3379 34.195C11.5404 34.9071 10.872 35.7523 10.3626 36.6932C10.215 37.0172 10.0377 37.3266 9.83296 37.6176C9.83296 37.7488 9.83296 37.7488 9.7021 37.7488V38.0111C9.57125 38.1422 9.57125 38.1422 9.7021 38.2734C10.0244 37.7765 10.3782 37.3008 10.7614 36.8494C11.4123 36.0491 11.9453 35.1594 12.3441 34.2075L12.3379 34.195ZM9.84542 80.2882V80.8191L9.97628 80.6879V80.4256C9.83919 80.4318 9.83919 80.4318 9.83919 80.3007L9.84542 80.2882ZM9.97004 83.0675V82.674C10.035 82.552 10.0689 82.4158 10.0689 82.2774C10.0689 82.1391 10.035 82.0029 9.97004 81.8808C9.86278 82.1307 9.81787 82.4029 9.83919 82.674C9.88854 82.7259 9.92586 82.7881 9.94848 82.8561C9.9711 82.9241 9.97846 82.9963 9.97004 83.0675V83.7296C9.88196 84.2611 9.92692 84.8062 10.1009 85.316C10.2479 84.9552 10.3125 84.5659 10.2898 84.1769C10.2672 83.7878 10.1579 83.4087 9.97004 83.0675V83.0675ZM11.2848 40.6718L10.8923 41.0652C10.8258 41.1628 10.7903 41.2781 10.7903 41.3963C10.7903 41.5144 10.8258 41.6297 10.8923 41.7273C11.0231 41.5961 11.0231 41.3338 11.154 41.1964C11.2848 41.059 11.2911 40.9403 11.2911 40.678L11.2848 40.6718ZM12.5996 56.6545C12.4687 57.4477 12.3379 58.5282 12.207 59.9584C12.0762 61.3887 11.9453 62.7315 11.9453 64.0556C11.8098 65.0189 11.8098 65.9966 11.9453 66.9599C12.3441 63.5247 12.4625 60.0896 12.6058 56.6545H12.5996ZM13.6527 54.6746C13.5218 54.6746 13.5218 54.6746 13.5218 54.5434L13.391 54.6746V55.0681C12.9984 58.8967 12.5996 62.5941 12.4687 66.429C12.4901 66.7001 12.4451 66.9724 12.3379 67.2222V69.6018C12.3379 72.6372 12.3379 75.5477 12.4687 78.5831C12.4466 79.553 12.4904 80.5234 12.5996 81.4874V83.3611C12.5996 83.4922 12.5996 83.4922 12.7304 83.6234C12.7304 83.7545 12.7304 83.7545 12.8613 83.7545C13.123 83.7545 13.2539 83.6234 13.391 83.3611V79.4013C13.2601 75.5727 13.1292 71.6067 13.2601 67.7781C13.2601 65.2798 13.2601 62.8939 13.391 60.3832C13.3687 59.5877 13.4125 58.7918 13.5218 58.0035V55.7301C13.6318 55.3897 13.6783 55.0319 13.6589 54.6746H13.6527ZM13.5218 86.1092V85.8468H13.3972C13.2663 85.8468 13.1355 85.978 13.0046 86.1092C12.8738 86.2403 12.8738 86.2403 13.0046 86.2403V86.3715C13.1355 86.3715 13.1355 86.3715 13.2663 86.2403C13.3972 86.2403 13.3972 86.2403 13.3972 86.1092H13.5218ZM13.391 90.3375C13.6527 90.2063 13.7835 90.0752 13.6527 89.944V89.8129H13.5218L13.2601 90.0752C13.2663 90.2001 13.2663 90.2001 13.3972 90.3375H13.391ZM19.0551 122.565H18.9242C18.8749 122.617 18.8375 122.679 18.8149 122.747C18.7923 122.815 18.7849 122.888 18.7934 122.959L19.3168 124.289C19.4476 124.42 19.4476 124.683 19.5785 124.951C19.7093 125.082 19.7093 125.213 19.8402 125.213H20.1019C20.2505 125.914 20.5182 126.584 20.8933 127.193C21.2465 127.688 21.5531 128.215 21.8092 128.767V128.105L21.6784 127.974C19.5585 122.26 17.8917 116.388 16.6935 110.411C16.5626 110.018 16.5626 109.618 16.4318 109.224L15.9021 106.32L15.6404 104.734C15.5708 104.421 15.4834 104.112 15.3787 103.809C15.2478 103.678 15.2478 103.678 15.2478 103.547C15.117 103.547 15.117 103.547 14.9861 103.678H14.8553V104.472C15.3543 107.9 16.0576 111.295 16.9614 114.639C17.354 116.357 17.8836 118.075 18.4133 119.792C18.691 120.699 18.9075 121.623 19.0613 122.559L19.0551 122.565ZM16.4193 70.1327C16.5358 69.7938 16.5803 69.4343 16.5501 69.0772C16.3887 69.4019 16.3447 69.7728 16.4255 70.1264L16.4193 70.1327ZM16.4193 67.7531L16.5501 67.8842V66.8287C16.4193 66.9599 16.4193 66.9599 16.4193 67.091V67.7531ZM17.2107 70.7885C17.2324 71.1886 17.1881 71.5895 17.0798 71.9752C17.2513 71.6045 17.2973 71.1878 17.2107 70.7885L17.4724 67.091C17.8649 63.5247 18.002 59.8273 18.1329 56.1298C18.002 56.261 17.8712 56.3922 17.8712 56.5233V57.0542L17.6094 59.4338C17.4786 61.0202 17.3477 62.6066 17.2169 64.3179V66.429C17.1074 67.7459 17.0638 69.0675 17.086 70.3888V70.5199C16.9552 70.6511 16.9552 70.6511 17.086 70.6511C17.086 70.7885 17.086 70.7885 17.2169 70.7885H17.2107ZM18.1391 55.5865V55.4553C18.1391 55.3241 18.1391 55.3241 18.27 55.193L18.1391 55.0618L18.0082 55.193V55.4553L18.1391 55.5865ZM20.9057 72.225C21.0366 72.0938 21.1674 72.0938 21.2983 71.9627V71.4318L21.56 68.5275C21.8217 66.1479 22.0897 63.7746 22.2205 61.2638V60.6205C22.3747 59.2119 22.3306 57.7885 22.0897 56.3922C21.9588 57.3165 21.9588 58.1097 21.8279 58.8904C21.7197 59.2761 21.6755 59.677 21.6971 60.0771C21.4354 62.3193 21.3045 64.5678 21.1674 66.81C21.1674 68.5275 21.0366 70.3763 20.9057 72.225C20.6213 74.1933 20.5336 76.1851 20.644 78.1709V79.495C20.9278 77.9277 21.0157 76.3311 20.9057 74.742V72.225ZM22.2205 49.2471V48.9848L22.0897 49.1159C22.0959 49.2596 22.0959 49.2596 22.2267 49.2596L22.2205 49.2471ZM25.2551 117.419C25.1276 117.59 25.0588 117.798 25.0588 118.012C25.0588 118.226 25.1276 118.434 25.2551 118.605V118.212C25.1696 118.098 25.1234 117.958 25.1234 117.815C25.1234 117.672 25.1696 117.533 25.2551 117.419L24.8625 116.626C24.853 116.2 24.7163 115.786 24.47 115.439C24.5978 114.711 24.4583 113.961 24.0774 113.328C24.1086 113.014 24.0638 112.697 23.9465 112.404C23.8157 111.741 23.6848 110.948 23.554 110.161V109.768C23.449 109.612 23.4026 109.424 23.4231 109.237C23.2923 109.106 23.2923 108.975 23.1614 108.843C23.169 107.995 23.0364 107.151 22.7688 106.345C22.8037 106.116 22.7574 105.882 22.638 105.683C22.6204 106.764 22.7999 107.84 23.1676 108.856C23.2596 110.108 23.481 111.347 23.8281 112.553C23.8076 112.74 23.854 112.928 23.959 113.084C23.959 113.215 23.959 113.215 24.0899 113.215C24.0899 113.347 24.0899 113.347 24.2207 113.347C24.1372 113.459 24.0817 113.589 24.0589 113.727C24.0362 113.865 24.0468 114.007 24.0899 114.14C24.1594 114.453 24.2468 114.761 24.3516 115.064C24.4009 115.116 24.4382 115.178 24.4609 115.246C24.4835 115.314 24.4908 115.386 24.4824 115.458C24.4603 115.903 24.5044 116.349 24.6133 116.782C24.6626 116.834 24.6999 116.896 24.7226 116.964C24.7452 117.032 24.7525 117.104 24.7441 117.175C24.8071 117.25 24.8852 117.31 24.9734 117.352C25.0615 117.394 25.1575 117.417 25.2551 117.419V117.419ZM23.1489 78.6955C23.4107 75.6601 23.6786 72.6185 23.8094 69.5831C24.3391 61.0015 24.9934 52.5448 25.7847 44.0944C25.7931 44.0232 25.7858 43.951 25.7632 43.883C25.7405 43.815 25.7032 43.7528 25.6539 43.7009V43.4386H25.5479V43.3074C23.701 55.0086 22.8981 66.8515 23.1489 78.6955V78.6955ZM23.1489 123.733C23.4031 125.15 23.8453 126.525 24.4637 127.824C24.897 129.033 25.4722 130.186 26.1773 131.259C25.9156 130.597 25.6476 129.804 25.2551 129.017C24.5946 127.312 23.9403 125.463 23.1489 123.746V123.733ZM24.0712 35.3941V35.5253C23.9757 35.7324 23.9308 35.9594 23.9403 36.1873C23.9049 36.4166 23.9513 36.651 24.0712 36.8494C24.1911 36.651 24.2374 36.4166 24.202 36.1873C24.2233 35.9162 24.1784 35.644 24.0712 35.3941V35.3941ZM24.3329 91.1245C25.6476 89.538 26.9686 87.8205 28.1526 86.1279C27.9239 86.0924 27.69 86.1389 27.4921 86.2591L27.0995 86.6525C26.7069 87.3146 26.1773 87.3146 25.7847 86.6525C25.6518 86.3902 25.5209 86.2591 25.3922 86.2591C25.2057 86.2385 25.018 86.285 24.8625 86.3902C24.6008 86.5214 24.47 86.5214 24.3329 86.6525C24.1958 86.7837 24.3329 87.046 24.4637 87.3146C24.1816 88.21 24.0924 89.1552 24.202 90.0877C24.3077 90.4225 24.352 90.7738 24.3329 91.1245ZM25.6476 83.3298H25.2551C25.0571 83.45 24.8233 83.4964 24.5946 83.461C24.4637 83.5922 24.3329 83.8545 24.4637 83.9919C24.5946 84.1293 24.5946 84.2542 24.7254 84.2542C24.8563 84.2542 24.8563 84.2542 24.9871 84.123C25.3047 83.9597 25.5445 83.6766 25.6539 83.3361L25.6476 83.3298ZM30.6326 82.6678C30.7634 82.6678 30.7634 82.6678 30.8943 82.5366C31.0251 82.5366 31.0251 82.5366 31.0251 82.4055H31.156C31.8165 81.4811 32.4708 80.6879 33.1313 79.7635C34.8448 77.5213 36.4276 75.3916 38.004 73.1618C42.6151 66.8225 47.2262 60.3519 51.8372 53.8814C58.031 45.1374 63.9568 36.1873 69.3592 26.8063C71.366 23.2224 73.0349 19.4587 74.3442 15.5641C74.894 13.9981 75.1187 12.3361 75.0047 10.6799C74.9659 10.4138 74.8425 10.1673 74.6527 9.97717C74.463 9.78699 74.2171 9.66328 73.9516 9.62441C71.6033 9.18493 69.1984 9.14061 66.8356 9.49325C64.0979 9.88742 61.4056 10.5506 58.7974 11.4731C53.8295 13.2271 49.0391 15.4501 44.4907 18.1123C41.5379 19.8063 38.6779 21.6576 35.9228 23.6585C33.8167 25.2449 31.7043 26.8313 29.7291 28.4115C29.3973 28.6507 29.1274 28.966 28.9421 29.3311C28.7567 29.6961 28.6612 30.1004 28.6635 30.51L28.4018 33.1519C28.1519 34.4169 27.975 35.6952 27.8722 36.9805C27.8887 37.4692 27.8447 37.958 27.7413 38.4358L27.4796 40.678C27.4969 41.2535 27.453 41.8293 27.3487 42.3956L27.087 43.982L26.8253 47.1485C26.6945 49.0222 26.4328 50.846 26.2957 52.5636C26.1648 53.4879 26.1648 54.4373 26.034 55.3366L25.7723 59.2964L25.2426 64.5803L24.9809 68.2777C25.003 69.204 24.9593 70.1307 24.8501 71.0508C24.7408 72.1026 24.6971 73.1601 24.7192 74.2174C24.7192 75.5415 24.5883 76.8593 24.4575 78.1771C24.3266 78.8392 24.7192 79.1015 25.3797 78.9703H25.5479C26.191 78.7947 26.8627 78.7501 27.5232 78.8392C28.5763 78.9703 29.2368 79.5012 29.3926 80.4256C29.3926 80.5567 29.3926 80.6879 29.5234 80.6879C29.5752 80.7374 29.6372 80.7748 29.7051 80.7975C29.7729 80.8201 29.845 80.8275 29.916 80.8191C30.0539 80.8268 30.1881 80.8665 30.308 80.9351C30.428 81.0038 30.5303 81.0994 30.6071 81.2145C30.6838 81.3296 30.7328 81.461 30.7502 81.5983C30.7676 81.7356 30.7529 81.8751 30.7073 82.0057L30.5765 82.1369V82.3992C30.5329 82.5429 30.5329 82.5429 30.6575 82.674L30.6326 82.6678ZM25.0993 113.44C24.9684 113.571 24.8376 113.703 24.8376 113.834C24.8376 113.965 24.8376 113.965 24.9684 114.096C24.9684 113.965 24.9684 113.965 25.0993 113.834V113.44ZM26.0215 118.593C25.8815 117.595 25.6156 116.619 25.2302 115.689C25.2997 116.002 25.3871 116.31 25.4919 116.613C25.6144 117.291 25.8001 117.956 26.0464 118.599L26.0215 118.593ZM25.6539 42.9202C25.6455 42.849 25.6528 42.7768 25.6754 42.7088C25.6981 42.6408 25.7354 42.5786 25.7847 42.5267C25.8709 42.3642 25.916 42.183 25.916 41.999C25.916 41.8149 25.8709 41.6337 25.7847 41.4712C25.8201 41.7004 25.7738 41.9348 25.6539 42.1332V42.9202ZM26.1711 40.2783V39.8848C26.0402 39.8848 26.0402 39.8848 25.9094 39.7536V40.1471C25.7785 40.2783 25.7785 40.2783 25.9094 40.2783V40.4094C26.0464 40.4157 26.0464 40.4157 26.1711 40.2783ZM26.3019 119.386H26.1711C26.0402 119.517 26.0402 119.517 26.0402 119.649C26.0225 120.73 26.202 121.805 26.5699 122.821L26.9624 124.008C27.2177 125.155 27.6154 126.265 28.1463 127.312C28.2772 127.705 28.5389 128.105 28.676 128.499C28.8213 129.07 29.1443 129.579 29.5982 129.954C28.3764 127.049 27.4069 124.044 26.7007 120.973L26.3019 119.386ZM26.6945 33.1457C26.5636 33.2769 26.4328 33.408 26.4328 33.5392C26.3277 33.695 26.2814 33.8831 26.3019 34.0701C26.1775 34.4524 26.1329 34.8564 26.1711 35.2567C26.2783 35.0069 26.3232 34.7347 26.3019 34.4635C26.291 33.9938 26.4284 33.5325 26.6945 33.1457V32.3587C26.8024 32.0179 26.8468 31.6601 26.8253 31.3032C26.6944 31.5972 26.6062 31.9085 26.5636 32.2276C26.439 32.4774 26.5761 32.7522 26.7069 33.1519L26.6945 33.1457ZM28.5638 129.954C28.433 129.56 28.1713 129.161 28.0342 128.767C27.6416 127.843 27.2428 127.05 26.8503 126.125C26.7194 126.256 26.7194 126.256 26.5885 126.256C27.0051 127.602 27.6711 128.856 28.5514 129.954H28.5638ZM29.7477 82.8052C29.9262 82.6418 30.057 82.4329 30.1261 82.2008C30.1953 81.9686 30.2002 81.7221 30.1403 81.4874C30.0771 81.4068 29.9968 81.3415 29.9051 81.2961C29.8135 81.2507 29.7129 81.2264 29.6107 81.225C29.4798 81.225 29.349 81.225 29.349 81.3562V81.8871C29.3987 81.9387 29.4362 82.0009 29.4589 82.0689C29.4815 82.137 29.4887 82.2093 29.4798 82.2806C29.511 82.477 29.5999 82.6597 29.7353 82.8052H29.7477ZM48.0487 6.87006L47.9178 7.00122C47.787 7.00122 47.787 7.00122 47.787 7.13238C42.0102 9.42288 36.5256 12.3938 31.4489 15.9825H31.318L30.9254 16.376C30.7946 16.376 30.7946 16.376 30.7946 16.5072C30.7946 16.6383 30.7946 16.6383 30.9254 16.6383C31.0563 16.7695 31.1871 16.9006 31.318 16.7695C31.318 16.6383 31.318 16.6383 31.4489 16.6383L31.5797 16.5072C33.2933 15.3205 35.0068 14.265 36.7204 13.2032C38.9742 11.7966 41.3041 10.5163 43.6993 9.36834L46.0734 8.31282C46.5418 8.02083 47.0266 7.756 47.5252 7.51962H47.6561L47.9178 7.2573C47.9672 7.2054 48.0045 7.14323 48.0271 7.07521C48.0497 7.0072 48.0571 6.93501 48.0487 6.86382C48.1795 6.99498 48.3104 7.12614 48.4412 6.99498C48.6402 6.96318 48.8248 6.87172 48.9709 6.73266C48.6726 6.8268 48.3614 6.87317 48.0487 6.87006V6.87006ZM32.2402 25.2262H32.1094C32.3545 25.0829 32.5771 24.904 32.7699 24.6953C32.9007 24.5641 33.1624 24.433 33.2995 24.3018H33.1687L32.2402 25.2262ZM52.398 58.0847C52.5289 58.0847 52.5289 58.0847 52.6597 57.9536H52.7906V57.8224C54.2577 56.0535 55.6225 54.2017 56.8782 52.2762C57.0379 52.0741 57.17 51.8514 57.2708 51.6142C60.5671 46.8612 63.7263 41.9709 66.7546 37.0867L66.8855 36.9556C66.8855 36.8244 66.8855 36.8244 67.0163 36.6932C67.0461 36.6699 67.0702 36.64 67.0868 36.6059C67.1033 36.5718 67.1119 36.5344 67.1119 36.4965C67.1119 36.4586 67.1033 36.4212 67.0868 36.3871C67.0702 36.353 67.0461 36.3231 67.0163 36.2998C66.8855 36.4309 66.8855 36.4309 66.7546 36.4309C66.6238 36.5621 66.6238 36.5621 66.6238 36.6932C66.4929 36.6932 66.4929 36.6932 66.4929 36.8244C65.041 38.8043 63.7263 40.9216 62.2744 43.0326C59.514 47.1485 56.8782 51.3769 54.1116 55.5865C53.9046 55.784 53.7282 56.0113 53.5882 56.261C53.0717 56.7993 52.669 57.4366 52.4042 58.1347C52.2351 58.1802 52.0881 58.2856 51.9907 58.4315C51.8933 58.5774 51.852 58.7538 51.8746 58.9279C52.0055 58.9279 52.0054 58.9279 52.0054 58.7968C52.1363 58.6656 52.2672 58.6656 52.398 58.5344V58.0847ZM67.0225 42.7641C67.1233 42.5268 67.2553 42.3041 67.4151 42.102C68.6186 40.8177 69.598 39.3398 70.3126 37.73C69.0935 39.3331 67.9939 41.024 67.0225 42.789V42.7641ZM68.3373 48.9723C71.109 45.5185 73.6209 41.863 75.8521 38.0361C73.8768 40.678 71.9015 43.4511 70.188 46.2242C69.5275 47.1485 68.9978 48.0916 68.3436 48.9973L68.3373 48.9723ZM74.7741 36.9805C73.0003 39.2519 71.3728 41.6342 69.9013 44.1131L70.431 43.3199C72.1143 41.3791 73.5714 39.2522 74.7741 36.9805V36.9805Z" fill="#0B1019"/>
<path d="M83.8902 103.678C83.3605 103.285 83.0988 103.81 82.9679 103.941C82.5754 104.472 82.1766 104.996 81.3852 104.865C80.2013 105.658 78.6186 104.996 77.2976 105.527C77.0427 105.634 76.7657 105.679 76.4902 105.656C76.2147 105.633 75.9487 105.544 75.7149 105.396C74.9235 104.734 74.0013 105.003 73.2224 104.603C72.3002 105.134 71.7705 104.209 71.2471 103.678C69.5336 102.361 68.4805 100.506 67.5583 98.5258C66.2815 95.2622 65.4434 91.8429 65.0658 88.3578C64.4053 84.5292 64.5362 80.7006 64.5362 76.8657C64.5788 72.8883 65.1552 68.9347 66.2497 65.1113C67.0786 61.6219 68.9117 58.4533 71.5213 55.9989C72.117 55.3577 72.7792 54.7819 73.4966 54.2813C73.9241 53.9532 74.4362 53.7543 74.9726 53.7078C75.5091 53.6614 76.0476 53.7693 76.5249 54.019C76.9175 54.2813 77.578 54.2813 77.578 54.1501C78.1076 53.0946 78.7619 53.4881 79.5533 53.4881C79.815 53.4881 79.815 53.3569 79.9458 53.2258C80.2298 52.8794 80.5933 52.6073 81.0051 52.4326C81.2003 52.3039 81.4289 52.2353 81.6625 52.2353C81.8962 52.2353 82.1247 52.3039 82.3199 52.4326C82.952 52.7944 83.6126 53.1035 84.2952 53.3569C85.61 53.8878 86.4013 54.8122 87.3235 55.8552C88.9062 57.5728 89.816 59.6838 90.7507 61.9323C92.3334 66.1606 92.62 70.3827 92.3334 74.8733C91.9714 80.6211 91.0892 86.3239 89.6976 91.9116C89.0699 94.1076 88.3232 96.2677 87.4606 98.3821C86.931 99.5688 86.1458 100.762 85.4853 101.948C85.2236 102.342 85.2236 103.004 84.5631 103.266L83.7718 103.66C83.9026 103.529 84.0335 103.529 84.0335 103.397C84.1643 103.397 84.2952 103.266 84.1643 103.135C84.0335 103.135 83.9026 103.135 83.9026 103.266C83.8685 103.288 83.8402 103.318 83.8202 103.353C83.8002 103.389 83.7891 103.428 83.7879 103.469C83.7867 103.51 83.7954 103.55 83.8132 103.586C83.831 103.623 83.8574 103.655 83.8902 103.678V103.678ZM66.7607 80.0385H66.6298V80.3009C66.6645 80.3009 66.6978 80.287 66.7224 80.2624C66.7469 80.2378 66.7607 80.2045 66.7607 80.1697V80.0385ZM70.5804 99.3065C70.4495 99.3065 70.3187 99.1753 70.3187 98.913C69.789 97.7263 69.3965 96.4147 69.0039 95.2156C68.5276 93.6172 68.1756 91.9843 67.9509 90.3314C67.5492 88.4167 67.2847 86.4756 67.1595 84.5229C66.9888 85.2574 66.9445 86.0157 67.0286 86.7651C67.2405 89.0745 67.5921 91.3688 68.0817 93.6354C68.573 96.2025 69.4116 98.6905 70.5742 101.03C71.1038 102.086 72.026 102.486 72.6803 103.141C72.8112 103.273 72.942 103.273 73.2099 103.01C72.4186 101.955 71.8952 100.631 71.1038 99.4439C70.8421 99.1816 70.7113 99.1816 70.5742 99.4439L70.5804 99.3065ZM68.6051 88.3453C67.7842 80.159 68.6322 71.891 71.0976 64.0433C68.3372 69.602 67.415 80.9567 68.6051 88.3516V88.3453ZM68.6051 90.7249C68.7356 90.4575 68.8034 90.1638 68.8034 89.8661C68.8034 89.5685 68.7356 89.2747 68.6051 89.0073C68.4743 89.6694 68.736 90.194 68.6051 90.7249C68.736 90.8561 68.8668 90.9872 68.8668 91.1184C69.2594 93.0983 69.6582 94.947 70.0507 96.9269C70.0543 97.1314 70.1037 97.3325 70.1954 97.5152C70.2871 97.698 70.4187 97.8577 70.5804 97.9824C70.5273 97.3948 70.3953 96.817 70.1878 96.2649L69.0039 91.1122C69.0092 91.0592 69.0024 91.0056 68.984 90.9557C68.9655 90.9057 68.936 90.8606 68.8975 90.8239C68.859 90.7871 68.8127 90.7597 68.762 90.7436C68.7113 90.7275 68.6577 90.7233 68.6051 90.7312V90.7249ZM75.9828 55.749C75.1915 55.8802 74.531 56.1425 74.2692 56.8046C74.0299 57.4337 73.6198 57.9832 73.0853 58.391C71.5307 59.6562 70.4607 61.4215 70.057 63.3875L70.8483 62.2008C71.5088 61.1453 72.1631 59.9586 73.2224 59.2966C74.531 58.3722 74.9298 56.9232 75.9828 55.7303V55.749ZM70.5804 99.4689C71.11 99.6 70.973 100.262 71.11 100.656C70.9313 100.487 70.7913 100.281 70.6998 100.052C70.6084 99.8233 70.5676 99.5775 70.5804 99.3315V99.4689ZM76.3754 91.1496L75.9828 88.77C75.8363 89.5768 75.9751 90.4095 76.3754 91.1246V91.1496ZM77.2976 59.0593C76.3754 59.7213 75.9828 60.3771 75.9828 61.1703C76.4689 60.489 76.9081 59.7753 77.2976 59.0343V59.0593ZM84.6753 60.6457C84.2507 60.819 83.8104 60.9508 83.3605 61.0391C82.5692 60.7768 82.4383 61.3015 82.1766 61.8323C82.15 62.1131 82.0606 62.3843 81.9149 62.6255C80.427 65.6449 79.3198 68.8381 78.6186 72.1315C77.5169 77.5605 77.0754 83.1034 77.3038 88.6389C77.4347 90.3564 77.6964 91.9428 77.9643 93.6354C78.1398 94.6175 78.4969 95.558 79.0174 96.4085C80.4692 92.8422 81.3915 89.1448 82.5754 85.5785L81.784 90.3314C82.4445 88.745 82.8371 87.1649 83.3667 85.5785C84.9494 79.9011 86.1334 74.2176 85.8592 68.2779C85.7247 65.6923 85.3302 63.1269 84.6815 60.6207L84.6753 60.6457ZM80.2013 59.9586C79.9396 60.0898 79.8087 60.3521 80.0705 60.883C80.0642 60.4895 80.463 60.221 80.2013 59.9586ZM84.021 86.634C83.7593 86.5028 83.7593 86.634 83.7593 86.7651C83.4976 88.4827 82.9679 90.0691 82.5754 91.6493C81.9149 94.0289 81.1235 96.2711 80.4692 98.6507C80.4345 98.6507 80.4013 98.6645 80.3767 98.6891C80.3522 98.7137 80.3384 98.7471 80.3384 98.7819C80.3384 99.0442 80.3384 99.1753 80.6001 99.3127C80.6681 99.3083 80.7321 99.2793 80.7803 99.231C80.8284 99.1827 80.8574 99.1185 80.8618 99.0504C81.1235 98.5195 81.2544 98.1261 81.5223 97.5952C81.784 96.802 81.6532 95.8776 82.052 95.0969C82.9103 92.69 83.5709 90.2168 84.0272 87.702C84.021 87.296 84.1207 86.9026 84.021 86.634ZM85.9963 89.1323C86.5902 87.6954 86.9884 86.185 87.1802 84.6416C86.5832 86.0822 86.1829 87.5969 85.9901 89.1448L85.9963 89.1323ZM87.9716 90.1878C88.2855 89.5727 88.466 88.8979 88.5012 88.2079C88.1423 88.8093 87.9588 89.4996 87.9716 90.2003V90.1878ZM89.0246 89.5257C88.7629 90.7124 88.6321 91.9054 88.3641 92.9609C88.8938 92.2988 88.8938 91.5056 89.1555 90.5813C89.2315 90.2308 89.1853 89.8649 89.0246 89.5445V89.5257Z" fill="#0B1019"/>
<path d="M108.129 105.79C108.129 106.845 107.338 107.769 106.547 107.769C106.363 107.731 106.173 107.734 105.99 107.78C105.808 107.825 105.638 107.911 105.494 108.032C104.833 108.425 104.833 108.425 104.441 107.769C104.441 107.507 104.31 107.376 104.179 107.107C103.257 107.37 103.257 107.37 102.727 106.052C102.066 106.314 102.197 106.845 102.066 107.507C102.066 108.431 101.674 108.694 100.752 108.038C100.266 107.726 99.896 107.263 99.6986 106.72C99.0319 104.6 98.5033 102.439 98.1159 100.25C97.61 97.5425 97.3059 94.8014 97.2062 92.049C96.9444 88.8762 96.6765 85.7096 96.5457 82.5431C96.1302 76.2016 95.9994 69.8622 96.1531 63.5249C96.1764 60.5199 96.3971 57.5196 96.8136 54.5436C97.0232 52.8863 97.7096 51.326 98.7889 50.053C99.0436 49.8046 99.3564 49.6242 99.6986 49.5283C99.8423 49.445 100.003 49.3961 100.169 49.3854C100.335 49.3747 100.5 49.4024 100.654 49.4665C100.807 49.5306 100.943 49.6292 101.052 49.7548C101.161 49.8804 101.239 50.0294 101.281 50.1904C101.412 50.5839 101.412 50.8524 101.674 51.1147C102.066 50.9836 101.936 50.5839 102.066 50.4527C102.197 49.5283 102.727 49.3972 103.381 49.7907C103.583 49.8841 103.753 50.0329 103.873 50.2197C103.994 50.4066 104.059 50.6238 104.06 50.8462C104.06 51.2397 103.93 51.6394 104.191 51.9017C104.721 51.6394 104.852 50.9773 105.506 50.8462C106.036 50.715 106.167 50.8462 106.167 51.3771C106.187 51.564 106.141 51.7521 106.036 51.908C106.029 51.9613 106.034 52.0156 106.051 52.0667C106.068 52.1177 106.097 52.1641 106.135 52.2021C106.173 52.2402 106.219 52.269 106.27 52.2862C106.321 52.3034 106.375 52.3086 106.428 52.3014C106.559 52.5637 106.69 52.3014 106.821 52.1703C106.952 52.0391 106.952 51.908 107.083 51.7768C107.153 51.7058 107.245 51.6597 107.344 51.6456C107.344 55.4742 107.475 59.1717 107.213 63.1377C107.396 62.9757 107.538 62.7735 107.629 62.5469C107.72 62.3204 107.757 62.0757 107.737 61.8324C107.737 60.3771 107.868 59.0593 107.999 57.604C107.965 56.6369 108.193 55.6787 108.659 54.8309V58.772C109.035 58.4139 109.309 57.9608 109.45 57.4604C110.685 54.1078 112.466 50.9841 114.722 48.2167C115.382 47.4235 116.174 46.7615 117.096 46.7615C118.81 46.7615 120.523 46.4992 121.838 47.817C121.969 48.0793 122.23 48.0793 122.498 48.0793C122.89 48.0795 123.274 48.191 123.605 48.4011C123.936 48.6112 124.2 48.9111 124.368 49.266C125.425 50.9886 126.225 52.8572 126.742 54.8122C127.271 57.5853 127.795 60.3584 128.455 63.1315C128.586 63.9247 128.848 64.7179 128.985 65.6297C129.388 66.5359 130.084 67.2795 130.96 67.7408C131.222 67.8719 131.49 67.7408 131.752 67.7408C132.571 67.5442 133.425 67.5442 134.244 67.7408C134.506 67.8719 134.905 67.7408 135.166 67.7408C135.559 67.7408 135.827 67.6096 135.958 68.0031C136.085 68.1745 136.154 68.3826 136.154 68.5964C136.154 68.8102 136.085 69.0183 135.958 69.1898C135.728 69.4484 135.461 69.6716 135.166 69.8518C134.375 70.3252 133.54 70.7225 132.674 71.0385C131.49 71.432 130.437 71.3008 129.247 71.3008C128.175 71.2578 127.132 70.9395 126.218 70.3765C124.636 69.1898 122.922 68.1343 121.738 66.4167C120.709 64.8274 120.069 63.017 119.869 61.1328C119.607 59.5464 119.339 57.96 119.208 56.3799C119.208 56.2487 119.208 55.9864 118.947 55.9864C118.68 56.3069 118.458 56.6619 118.286 57.0419C117.45 58.6087 116.746 60.2423 116.18 61.926C114.542 66.4967 113.222 71.1755 112.229 75.9289C111.569 78.9643 111.307 82.1371 110.915 85.1725C110.653 87.6708 110.522 90.0566 110.385 92.5674C110.209 94.9844 110.165 97.4093 110.254 99.8311C110.254 101.418 110.123 102.998 109.992 104.584C109.809 105.315 109.544 106.024 109.201 106.695C109.197 106.763 109.168 106.827 109.12 106.876C109.071 106.924 109.007 106.953 108.939 106.957C108.836 106.838 108.748 106.706 108.678 106.564C109.182 105.921 108.528 106.052 108.129 105.79ZM98.9073 82.0184V82.2808V82.0184ZM98.9073 85.4536V86.7714C99.4369 86.2405 98.9073 85.847 98.9073 85.4473V85.4536ZM99.169 87.5646C99.0721 87.7949 99.0223 88.0423 99.0223 88.2922C99.0223 88.5422 99.0721 88.7896 99.169 89.0199C99.2355 88.5371 99.2355 88.0474 99.169 87.5646V87.5646ZM100.621 100.506C100.883 98.9193 100.752 97.2017 100.883 95.5091C100.883 93.7916 100.752 91.9428 100.621 90.2253C100.49 87.5834 100.49 84.8103 100.359 82.0372C100.097 77.0406 99.8295 71.8692 99.8295 66.8476C99.92 65.4809 99.8761 64.1086 99.6986 62.7505C99.0381 75.2793 98.9073 87.9581 100.621 100.506ZM99.9603 57.0544C99.8295 57.3167 99.9603 57.5853 100.091 57.9788C99.9603 57.579 100.222 57.3167 99.9603 57.0544ZM100.222 52.9572C100.222 54.0128 99.8295 55.0683 99.9603 56.1238C100.359 55.3368 100.49 53.4881 100.222 52.9572V52.9572ZM103.25 92.5799C103.512 92.1864 103.381 91.7867 103.381 91.2621C103.281 91.6938 103.239 92.137 103.257 92.5799H103.25ZM106.416 89.938C106.284 90.3673 106.284 90.8265 106.416 91.2558C106.548 90.8265 106.548 90.3673 106.416 89.938V89.938ZM107.076 71.9754C107.003 72.0241 106.941 72.0879 106.894 72.1625C106.847 72.2371 106.816 72.3208 106.804 72.4081C106.791 72.4954 106.798 72.5844 106.822 72.6691C106.847 72.7539 106.889 72.8324 106.945 72.8997C106.914 72.5855 106.959 72.2684 107.076 71.9754V71.9754ZM107.606 81.0878C107.475 81.4813 107.076 81.881 107.344 82.2745C107.737 81.881 107.606 81.4876 107.606 81.0878V81.0878ZM107.475 70.7887C107.725 70.196 107.771 69.5368 107.606 68.915C107.469 69.602 107.207 70.1266 107.469 70.7887H107.475ZM108.422 97.7326C108.557 97.2569 108.557 96.7531 108.422 96.2773C108.356 96.7601 108.356 97.2498 108.422 97.7326ZM108.952 66.0357C109.344 64.7179 109.612 63.6561 110.005 62.4694C110.386 61.303 110.824 60.1565 111.32 59.0343C111.712 57.9788 112.242 56.9232 112.635 55.8615C113.027 54.6748 113.949 53.8816 114.086 52.5575C113.694 52.8198 113.557 53.2195 113.295 53.4819C112.444 54.9688 111.696 56.5131 111.058 58.1037C110.848 58.6577 110.583 59.1891 110.267 59.6901C109.083 61.4077 108.952 63.3875 108.684 65.4986C108.659 65.636 108.79 65.7734 108.921 66.0357H108.952ZM113.407 59.6963C113.145 59.6963 113.015 59.6963 112.878 59.8275C112.747 60.221 112.616 60.4895 112.485 60.883C111.039 64.9426 109.851 69.0896 108.927 73.2994C108.927 73.5618 108.796 73.6929 108.927 73.9615C109.189 73.8303 109.189 73.568 109.189 73.2994C109.98 70.3952 110.771 67.3536 111.681 64.4493C112.09 62.8276 112.619 61.2388 113.264 59.6963C113.435 59.3152 113.566 58.9176 113.656 58.5096C113.27 59.0343 113.008 59.2966 113.407 59.6963ZM109.045 87.4397C109.438 87.3085 109.307 86.9088 109.307 86.6465C109.7 83.2114 110.098 79.9136 110.622 76.6097C110.787 75.8579 110.885 75.0929 110.915 74.3237C110.381 76.1844 109.986 78.082 109.731 80.0011C109.469 82.3807 108.939 84.8852 109.07 87.396C108.993 87.7957 109.039 88.2094 109.201 88.5827C109.225 88.1951 109.172 87.8066 109.045 87.4397V87.4397ZM115.763 60.8955C115.554 61.2608 115.421 61.6643 115.37 62.0822C115.239 62.0822 115.239 62.3445 115.108 62.4757C114.461 64.1985 113.932 65.964 113.526 67.7595C111.381 75.1086 110.142 82.6931 109.837 90.3439C109.706 92.3238 109.706 94.3037 109.575 96.2898C109.4 97.0904 109.492 97.9263 109.837 98.6695C109.837 96.6896 109.837 94.5723 109.968 92.5924C110.013 90.0762 110.19 87.564 110.497 85.0663C110.759 82.9553 110.89 80.838 111.289 78.5958C112.137 73.9178 113.238 69.2893 114.585 64.7304C114.977 63.9372 115.507 63.0128 115.376 62.0884C115.558 61.9571 115.693 61.7717 115.764 61.5587C115.834 61.3457 115.836 61.1158 115.769 60.9018C116.161 60.7706 116.161 60.5083 116.161 60.2397C115.775 60.3584 115.9 60.7519 115.775 60.883L115.763 60.8955ZM112.865 66.0482C113.258 65.6547 113.258 65.6547 113.258 64.9927L112.865 66.1794C112.865 66.5728 112.472 67.1037 112.603 67.7658C112.74 67.0912 113.139 66.5603 112.871 66.0357L112.865 66.0482ZM114.18 57.3042C114.049 57.4354 113.787 57.5665 113.918 57.8351C114.03 57.579 114.192 57.4604 114.192 57.3167L114.18 57.3042ZM120.885 48.3354C120.885 48.0731 120.492 47.8045 120.093 47.8045C120.026 47.8102 119.962 47.8397 119.914 47.8877C119.867 47.9357 119.837 47.9992 119.831 48.0669C119.831 48.4603 120.224 48.8601 120.492 48.7289C120.779 48.7164 120.885 48.7164 120.885 48.3354ZM124.206 50.5901C124.072 49.8354 123.703 49.1424 123.153 48.6102C123.08 48.5453 122.985 48.5094 122.888 48.5094C122.79 48.5094 122.696 48.5453 122.623 48.6102C122.593 48.6336 122.569 48.6635 122.553 48.6975C122.536 48.7316 122.527 48.769 122.527 48.807C122.527 48.8449 122.536 48.8823 122.553 48.9164C122.569 48.9505 122.593 48.9803 122.623 49.0037C122.885 49.3972 123.153 49.9281 123.414 50.3215C123.448 50.3917 123.496 50.4545 123.554 50.5061C123.612 50.5577 123.68 50.5971 123.754 50.6221C123.828 50.6471 123.905 50.6572 123.983 50.6517C124.061 50.6462 124.136 50.6252 124.206 50.5901V50.5901Z" fill="#0B1019"/>
<path d="M122.492 37.6428C122.1 38.1737 121.701 37.774 121.439 37.5116C121.047 37.1182 120.779 36.5873 120.386 36.1938C120.303 36.0817 120.247 35.9512 120.224 35.8132C120.202 35.6751 120.212 35.5337 120.255 35.4006C120.648 34.7386 120.255 34.2139 119.993 33.683C119.878 33.5105 119.805 33.3125 119.782 33.1058C119.76 32.8992 119.787 32.69 119.863 32.4963C120.288 31.3184 121.07 30.303 122.1 29.5921C124.195 28.0686 126.505 26.8667 128.954 26.0258C132.654 24.6805 136.504 23.7933 140.419 23.3839C140.689 23.3591 140.941 23.2384 141.129 23.0436C141.318 22.8489 141.431 22.593 141.447 22.3221C141.84 20.6046 142.239 18.887 142.762 17.3256C143.024 16.7947 143.155 16.1389 143.423 15.7392C143.691 15.3394 143.684 14.946 144.214 14.946C144.476 14.946 144.607 14.2839 144.744 14.0216C144.913 13.5239 145.232 13.0913 145.658 12.7836C146.083 12.4759 146.593 12.3083 147.118 12.304C147.374 12.2989 147.628 12.3565 147.857 12.4719C148.086 12.5872 148.284 12.7569 148.433 12.9661C148.694 13.3595 149.093 13.2284 149.224 13.497C149.224 13.7593 149.224 14.159 149.486 14.2902C149.645 14.2368 149.79 14.1469 149.909 14.0277C150.028 13.9085 150.118 13.7631 150.171 13.6031C150.564 12.9411 150.564 12.9411 151.093 13.472C151.216 13.5855 151.314 13.7236 151.381 13.8775C151.447 14.0313 151.481 14.1974 151.48 14.3651C151.872 14.1028 152.009 13.4407 152.533 13.9716C152.654 14.0338 152.754 14.1289 152.824 14.246C152.893 14.3631 152.928 14.4975 152.925 14.6337C152.925 14.896 152.794 15.1646 152.925 15.4269C153.455 15.2957 153.978 14.7648 154.377 15.558C155.168 15.4269 155.299 15.8204 155.43 16.4824C155.43 16.6136 155.561 16.6136 155.692 16.6136C156.483 16.7447 156.352 17.4068 156.352 17.9314C156.352 19.3866 156.091 20.8356 155.96 22.3034C155.698 23.2277 155.829 23.2277 156.62 23.3589C158.839 23.6708 161.038 24.1108 163.207 24.6767C165.068 25.1483 166.846 25.9046 168.478 26.9189C171.506 28.7927 171.774 31.8031 170.971 34.1827C170.672 34.8594 170.451 35.5675 170.31 36.2937C170.179 36.8246 169.918 37.4804 169.126 37.3493C168.909 37.3683 168.705 37.4589 168.544 37.607C168.384 37.7551 168.278 37.9522 168.241 38.1674C168.049 38.4948 167.777 38.7677 167.45 38.9606C167.213 38.7169 167.06 38.4037 167.013 38.0667C166.966 37.7298 167.027 37.3865 167.188 37.0869C167.638 36.1872 168.033 35.2612 168.372 34.3138C168.451 34.1206 168.454 33.9048 168.382 33.7092C168.309 33.5136 168.165 33.3526 167.98 33.2583C167.464 32.7675 166.812 32.4451 166.11 32.334C163.325 31.5643 160.434 31.2522 157.549 31.4096C156.675 31.5191 155.794 31.563 154.913 31.5408C154.383 31.6719 154.252 31.8031 154.122 32.334C153.86 34.9759 153.33 37.6178 153.068 40.2597C152.539 44.3569 151.885 48.4478 151.486 52.6762C150.956 56.2425 150.433 59.8088 150.171 63.3751C149.909 66.5416 149.51 69.7144 149.38 73.0184C149.249 77.3904 149.118 81.8686 149.38 86.3592C149.51 87.9456 149.51 89.6632 149.641 91.2433C149.714 91.393 149.74 91.5609 149.716 91.7255C149.693 91.8901 149.621 92.0441 149.51 92.1677C149.118 90.981 149.249 89.9255 149.118 88.8637C148.547 83.866 148.37 78.831 148.588 73.8054C148.719 70.1079 148.981 66.4105 149.38 62.8442C149.641 60.3459 149.772 57.8476 150.04 55.4493C150.171 54.2626 149.909 53.0697 150.433 52.0141C150.171 51.3521 150.825 50.6963 150.433 50.0343C150.171 49.7719 150.825 49.5034 150.564 49.1099C150.564 48.8476 150.694 48.579 150.302 48.3167C150.092 48.9178 150.003 49.5546 150.04 50.1904C149.778 51.908 149.648 53.6255 149.38 55.4743L148.588 66.5666C147.996 74.2582 147.996 81.9841 148.588 89.6757C148.758 92.3553 149.199 95.0108 149.903 97.6015C150.165 98.1323 150.296 98.7881 150.564 99.319C150.694 99.4502 150.825 99.8499 151.224 99.7125C151.486 99.5813 151.486 99.7125 151.617 99.8437C152.009 100.637 152.801 101.161 153.33 101.955C153.461 102.086 153.723 102.348 153.461 102.617C153.33 102.879 153.068 102.617 152.931 102.617C152.794 102.617 152.67 102.617 152.67 102.748C152.539 102.879 152.539 103.141 152.67 103.141C152.847 103.245 152.983 103.406 153.055 103.599C153.126 103.791 153.129 104.003 153.062 104.197C153.062 104.459 153.062 104.459 152.931 104.59C151.878 104.853 150.825 105.515 149.635 105.121C149.536 105.059 149.422 105.026 149.305 105.026C149.188 105.026 149.074 105.059 148.975 105.121C147.105 105.783 145.547 105.252 144.233 103.803C143.049 102.617 142.363 101.03 141.74 99.3128C140.61 96.1919 139.814 92.9592 139.366 89.6694C138.528 84.8624 137.956 80.0124 137.653 75.1419C137.26 70.2578 136.992 65.3674 136.992 60.4833C137.123 57.4479 137.254 54.4062 137.522 51.2397C137.914 46.3555 138.444 41.5963 139.104 36.7122C139.104 36.1813 139.235 35.6567 139.235 35.1258V34.7323C136.207 35.2632 133.303 36.0501 130.275 36.8434C128.96 37.2368 127.782 37.7677 126.455 38.1612C126.193 38.1612 125.926 38.2924 125.926 38.5547C125.926 38.817 125.926 39.0856 125.664 39.2167C125.264 39.4412 124.804 39.533 124.349 39.479C123.689 39.479 123.165 38.817 122.48 38.9481C122.349 38.9481 122.218 38.5547 122.48 38.2861C122.703 38.2407 122.913 38.1459 123.096 38.0087C123.278 37.8715 123.427 37.6953 123.533 37.4929C123.874 37.4428 124.201 37.3247 124.495 37.1455C124.789 36.9664 125.045 36.7298 125.246 36.4499C124.455 36.7122 123.794 36.9808 123.533 37.6366C123.194 37.5038 122.818 37.5038 122.48 37.6366C122.611 37.5054 122.872 37.5054 122.872 37.1057C122.611 37.2368 122.343 36.9745 122.081 37.2368L122.492 37.6428ZM123.944 36.7184C124.475 36.33 124.919 35.8342 125.246 35.2632C125.377 35.132 125.377 35.0009 125.246 35.0009C124.586 34.8697 124.193 35.3943 123.794 35.6629L123.402 36.0564C123.271 36.1876 123.271 36.3187 123.402 36.5873C123.545 36.581 123.545 36.8496 123.938 36.7122L123.944 36.7184ZM123.551 32.0966C123.813 32.2278 124.081 31.9655 124.343 31.8343C126.034 30.7445 127.847 29.8578 129.745 29.1924C132.56 28.1197 135.486 27.3676 138.469 26.9502C139.129 26.819 139.784 26.6879 140.338 26.5567C140.507 26.5112 140.654 26.4058 140.752 26.2599C140.849 26.114 140.89 25.9376 140.868 25.7635C140.737 25.5012 140.338 25.6323 140.207 25.6323H139.678C135.259 26.4167 130.932 27.6558 126.767 29.3298C125.452 29.8607 124.661 30.785 123.738 31.7094C123.545 31.853 123.414 31.9592 123.545 32.0904L123.551 32.0966ZM124.474 34.2077C125.461 34.0633 126.354 33.5419 126.966 32.7524C125.128 33.5456 124.86 33.6768 124.467 34.2077H124.474ZM125.926 37.5116C126.056 37.6428 126.187 37.5116 126.318 37.5116C126.449 37.3805 126.58 37.3805 126.58 37.1182C126.444 37.1131 126.309 37.1468 126.191 37.2153C126.073 37.2838 125.976 37.3844 125.913 37.5054L125.926 37.5116ZM133.702 32.2278C131.596 32.2278 127.508 33.8142 126.717 34.8697C129.079 33.9391 131.478 33.0147 133.69 32.2278H133.702ZM139.366 33.4145C138.313 33.2833 132.911 34.8697 131.727 35.5255C134.305 34.9613 136.852 34.2566 139.354 33.4145H139.366ZM134.593 30.1105C136.176 30.1105 139.578 29.3173 140.126 28.7927C138.251 29.0915 136.402 29.532 134.593 30.1105V30.1105ZM134.855 31.9842C134.89 31.9842 134.923 31.9704 134.947 31.9458C134.972 31.9212 134.986 31.8878 134.986 31.853H134.855C134.724 31.853 134.724 31.853 134.593 31.9842H134.855ZM135.117 33.1709C136.568 32.7774 138.145 32.5088 139.597 32.1154C139.606 32.0146 139.653 31.9211 139.728 31.853C138.146 32.0682 136.602 32.5056 135.141 33.1521L135.117 33.1709ZM139.858 56.0176C139.759 56.0317 139.667 56.0777 139.597 56.1488V59.053C139.619 58.0366 139.706 57.0227 139.858 56.0176C139.88 55.1827 139.836 54.3474 139.728 53.5194C139.753 54.2813 139.485 55.2057 139.883 55.9989L139.858 56.0176ZM140.911 49.0162C140.607 50.093 140.429 51.2019 140.382 52.3202C139.989 55.8865 139.852 59.4528 139.721 62.8879C139.59 66.4542 139.852 69.8893 139.852 73.3244C139.826 74.0743 139.87 74.8249 139.983 75.5666C140.114 78.2086 140.376 80.7193 140.513 83.3613C140.729 84.0428 140.817 84.7585 140.774 85.4723C140.603 85.843 140.557 86.2597 140.644 86.659C140.774 86.3967 140.644 86.2655 140.905 86.1281C141.036 87.1836 141.298 88.2392 141.435 89.3009C141.621 90.4195 141.885 91.5236 142.226 92.6049C140.014 78.0712 140.145 63.5249 140.936 48.9975L140.911 49.0162ZM143.148 63.9372V63.144C143.148 63.0128 143.148 63.0128 143.018 63.144V63.6748C143.043 63.7873 143.043 63.7873 143.18 63.9184L143.148 63.9372ZM143.41 81.6312H143.317V82.1621H143.448L143.41 81.6312ZM143.41 58.9156C143.41 59.7088 143.148 60.3709 143.41 61.1578V58.9156ZM146.046 41.3527C144.532 49.366 143.737 57.4992 143.672 65.6547C144.102 57.5791 145.547 49.5284 146.077 41.3403L146.046 41.3527ZM146.046 96.0275C144.793 89.8872 144 83.6617 143.672 77.4029C143.834 83.7298 144.102 89.938 146.077 96.015L146.046 96.0275ZM143.809 86.1219H143.678C143.657 86.4358 143.701 86.7507 143.809 87.0462V86.1219ZM143.94 87.5771V88.5015C144.102 88.3516 144.233 88.0643 143.94 87.5646V87.5771ZM146.968 81.8998H146.837V83.6173H146.968V81.8998ZM148.943 97.3516C148.551 95.2406 148.152 93.2607 147.76 91.2746C147.498 89.1635 147.23 87.0462 147.099 84.9352C146.868 87.4397 147.791 95.4842 148.975 97.3329L148.943 97.3516ZM147.336 62.6131C147.865 57.6165 148.52 52.5762 149.049 47.5547C149.058 47.4835 149.05 47.4113 149.028 47.3433C149.005 47.2753 148.968 47.2131 148.919 47.1612C148.788 47.0301 148.919 47.2924 148.788 47.1612C148.445 48.604 147.13 60.6207 147.392 62.6006L147.336 62.6131ZM147.728 95.7652V95.1032C147.728 95.1032 147.728 94.972 147.598 95.1032V95.6341L147.728 95.7652ZM149.704 92.7298C149.835 92.861 149.835 92.9921 149.704 92.9921C149.704 93.1233 149.704 93.1233 149.573 93.1233C149.442 93.1233 149.442 92.9921 149.573 92.861C149.595 92.8747 149.622 92.8813 149.648 92.8798C149.675 92.8783 149.7 92.8688 149.721 92.8525C149.742 92.8363 149.757 92.8141 149.765 92.7888C149.773 92.7636 149.774 92.7365 149.766 92.7111L149.704 92.7298ZM150.364 47.0363C150.495 47.2986 150.102 47.5672 150.495 47.9607C150.557 47.5422 150.688 47.2799 150.426 47.0176L150.364 47.0363ZM151.025 45.8496C150.894 45.9808 150.894 46.112 150.763 46.112C150.763 46.1467 150.777 46.1801 150.801 46.2047C150.826 46.2293 150.859 46.2431 150.894 46.2431L151.156 45.9808L151.025 45.8496ZM150.794 48.0918C150.925 47.9607 150.925 47.9607 150.925 47.8295V47.5672C150.908 47.5672 150.891 47.5706 150.875 47.5772C150.859 47.5838 150.845 47.5934 150.832 47.6056C150.82 47.6178 150.811 47.6323 150.804 47.6482C150.798 47.6641 150.794 47.6811 150.794 47.6984V48.0918ZM151.056 45.0564C151.187 44.7941 151.318 44.663 151.187 44.5256H150.925C151.035 44.673 151.09 44.854 151.081 45.0377L151.056 45.0564ZM152.371 35.2819C152.303 35.2863 152.239 35.3154 152.19 35.3637C152.142 35.4119 152.113 35.4761 152.109 35.5442C151.978 36.4686 151.847 37.2618 151.716 38.1862C151.519 39.1441 151.519 40.1325 151.716 41.0904C151.847 39.1105 152.109 37.2618 152.377 35.2819C152.475 35.0996 152.526 34.8957 152.526 34.6886C152.526 34.4814 152.475 34.2775 152.377 34.0952C152.321 34.4833 152.33 34.8778 152.402 35.2632L152.371 35.2819ZM152.663 32.4776V32.8711C152.794 32.8836 152.663 32.7524 152.663 32.4776ZM154.639 21.5164C155.299 20.5921 155.823 18.0813 155.43 17.1444C155.168 18.7308 154.9 20.0487 154.77 21.5164C154.508 21.6476 154.508 21.9099 154.639 22.1785C154.77 21.9224 154.907 21.6601 154.639 21.5289V21.5164ZM168.472 32.0841C168.079 31.0286 167.288 30.8975 166.497 30.4977C163.599 29.0425 160.434 28.624 157.275 28.5178C157.013 28.5178 156.614 28.5178 156.483 28.7802C156.352 29.311 155.954 29.1736 155.561 29.311C155.299 29.311 155.031 29.311 154.9 29.7045C157.191 29.7001 159.48 29.8314 161.755 30.098C164.089 30.3924 166.36 31.0653 168.478 32.0904L168.472 32.0841ZM166.098 27.3312C165.846 27.2639 165.617 27.1277 165.437 26.9377C163.772 26.2964 162.051 25.8093 160.297 25.4824C159.904 25.4824 159.636 24.9516 159.244 25.2201H158.583C158.321 25.3513 158.053 25.2201 157.923 25.2201C157.923 25.089 158.184 24.9578 157.923 24.9578C157.125 24.9797 156.331 25.0675 155.548 25.2201C155.418 25.2201 155.418 25.4824 155.287 25.6136C155.287 25.7448 155.548 25.8759 155.679 25.8759C155.941 25.8759 156.209 26.0071 156.602 26.0071C158.5 26.053 160.392 26.2304 162.266 26.538C163.468 26.8128 164.652 27.0751 166.104 27.3374L166.098 27.3312ZM155.299 27.4811C157.935 27.7434 160.44 28.0119 163.076 28.4054C160.571 27.3374 157.935 27.7371 155.299 27.4811ZM162.415 31.0473C162.808 30.9162 163.207 31.1785 163.599 31.0473C163.216 30.9146 162.799 30.9146 162.415 31.0473C162.154 30.2541 161.624 30.9162 161.231 30.785C161.624 31.0349 162.01 30.7725 162.415 31.0349V31.0473Z" fill="#0B1019"/>
<path d="M141.859 64.4493C140.675 63.9184 140.544 63.7873 140.806 63.1315C140.81 63.0633 140.839 62.9991 140.887 62.9509C140.935 62.9026 140.999 62.8735 141.067 62.8691C141.329 62.8691 141.46 63.0003 141.46 63.1315C141.67 63.5433 141.805 63.9897 141.859 64.4493V64.4493ZM140.824 64.9552C141.33 65.1247 141.816 65.3466 142.276 65.6172C142.538 65.7484 142.538 66.0107 142.407 66.2793C142.145 66.4104 142.014 66.2793 141.877 66.1481C141.4 65.884 141.028 65.4626 140.824 64.9552V64.9552ZM164.939 126.894C165.73 131.384 166.522 135.875 167.313 140.235C167.182 140.235 167.182 140.235 167.182 140.366C166.92 139.572 166.789 138.91 166.522 138.123C165.599 134.164 164.652 130.198 163.755 126.107C162.571 121.223 161.381 116.201 160.328 111.317C158.458 103.66 156.901 96.1275 155.717 88.3391C155.187 85.0351 154.794 81.6062 154.533 78.1711C154.14 75.0045 154.003 71.7005 153.741 68.3966C153.606 67.7793 153.606 67.1401 153.741 66.5229C153.741 66.1294 153.48 65.8608 152.95 65.8608C152.42 65.992 151.635 65.7297 151.236 66.3917C151.106 66.5229 150.844 66.5229 150.844 66.3917C150.183 65.7297 149.66 66.1294 149.13 66.3917C148.601 66.5229 148.208 66.7852 147.678 66.654C147.286 66.5229 147.548 67.0475 147.286 67.0475L147.155 66.9163C147.024 66.7852 147.155 66.3855 146.763 66.3855C146.501 66.3855 146.501 66.7789 146.501 66.9163C146.501 67.0538 146.37 67.1787 146.239 67.3098C146.134 67.154 146.088 66.9659 146.108 66.7789C145.847 66.9101 145.847 67.441 145.448 67.441C145.284 67.4604 145.119 67.4473 144.96 67.4023C144.802 67.3572 144.654 67.2812 144.526 67.1787C144.656 66.9163 144.918 67.0475 145.055 66.9163C145.317 66.9163 145.448 66.654 145.317 66.5229C144.656 65.992 144.656 65.205 144.133 64.6492C143.74 64.7803 143.871 65.0426 143.74 65.18C143.479 65.5735 143.348 65.7109 142.949 65.3112C142.567 64.8823 142.276 64.3796 142.095 63.8339C141.914 63.2883 141.846 62.7113 141.896 62.1384C141.901 61.8515 141.991 61.5727 142.156 61.3378C142.32 61.103 142.551 60.9228 142.818 60.8205C143.541 60.4019 144.358 60.1741 145.192 60.1585C147.685 60.0273 150.177 60.0273 152.701 60.0273C153.623 60.0273 153.623 60.0273 153.623 59.103C153.663 54.5087 153.971 49.9207 154.545 45.3625C155.206 40.6095 156.128 35.8565 157.842 31.497C159.156 28.4616 160.739 25.6885 163.113 23.4401C163.895 22.5434 164.872 21.8387 165.968 21.3806C167.065 20.9226 168.252 20.7233 169.438 20.7982C169.708 20.8195 169.98 20.7745 170.229 20.667C171.061 20.2978 172 20.2511 172.865 20.5358C175.501 21.0667 178.006 21.9911 179.981 23.8398C181.059 24.7962 181.759 26.1078 181.956 27.5373C182.199 28.7102 182.243 29.9159 182.087 31.1035C181.868 32.8558 181.781 34.622 181.825 36.3874C181.825 37.0494 181.694 37.5741 181.165 37.7052C180.48 37.9439 179.775 38.1215 179.059 38.2361C178.529 38.2361 178.267 37.8426 177.875 37.7052C177.345 37.4429 177.345 36.912 177.345 36.25C177.431 34.8395 177.387 33.4241 177.214 32.0217C176.983 30.3342 176.399 28.7146 175.501 27.2687C174.84 26.2132 174.578 26.2132 173.525 26.8752C172.472 27.5373 171.812 28.7489 171.151 29.7795C169.253 33.3469 167.99 37.219 167.419 41.2216C166.277 47.3142 165.79 53.5121 165.967 59.7088C165.967 60.502 165.967 60.502 166.889 60.502C170.399 60.554 173.891 61.0002 177.301 61.8324C178.128 61.9759 178.928 62.2433 179.675 62.6256C179.937 62.8879 180.336 63.019 180.598 63.4188C180.712 63.536 180.794 63.6804 180.836 63.8384C180.879 63.9963 180.881 64.1626 180.842 64.3214C180.802 64.4802 180.723 64.6264 180.612 64.746C180.5 64.8657 180.361 64.9549 180.205 65.0052C179.68 65.2838 179.076 65.3762 178.492 65.2675C176.268 64.9393 174.021 64.8077 171.774 64.874L166.503 65.2675C166.11 65.2675 165.973 65.661 165.973 65.9295C166.082 66.7177 166.126 67.5137 166.104 68.3091C166.235 72.4063 166.497 76.4972 166.634 80.5944C166.895 83.6298 167.026 86.6715 167.163 89.838C167.294 91.2933 167.294 92.8734 167.425 94.4599L168.241 105.552C168.313 107.886 168.521 110.213 168.864 112.522C168.792 113.55 168.925 114.582 169.257 115.558V115.82C169.126 117.007 169.519 118.2 169.65 119.386C169.65 120.311 169.911 121.104 169.911 122.028C170.173 124.271 170.572 126.519 170.833 128.761C170.964 130.348 171.226 131.797 171.494 133.383C171.625 134.969 171.756 136.556 172.024 138.136C172.09 139.025 172.221 139.908 172.416 140.778C172.509 141.608 172.323 142.446 171.887 143.158C171.512 143.954 170.841 144.571 170.017 144.875C169.625 145.006 169.357 145.137 169.095 144.613C168.59 143.739 168.193 142.808 167.911 141.84C167.654 141.12 167.521 140.362 167.518 139.597C167.649 138.142 167.126 136.824 166.858 135.507C166.465 132.865 165.805 130.354 165.275 127.712C165.264 127.41 165.134 127.125 164.914 126.919L164.939 126.894ZM155.823 59.9586C155.899 59.7197 155.927 59.4677 155.905 59.2177C155.882 58.9677 155.81 58.7248 155.692 58.5034C155.604 58.9914 155.649 59.4943 155.823 59.9586ZM155.953 68.7026C156.085 67.9149 156.085 67.1107 155.953 66.323C155.821 67.1107 155.821 67.9149 155.953 68.7026C156.215 69.7581 155.823 70.8137 156.483 71.738C156.221 72.5312 156.614 73.1933 156.745 73.9865C156.876 75.9664 157.137 77.9462 157.274 79.795C157.405 81.1128 157.536 82.5681 157.667 83.8921C157.798 84.6853 157.798 85.6097 157.929 86.3904C158.19 87.8457 158.458 89.1635 158.589 90.6187C158.589 90.8811 158.72 90.8811 158.982 90.8811C158.452 91.8054 159.244 92.5986 159.244 93.523C159.244 92.5986 159.374 91.6493 158.982 90.8811V89.6944C158.72 87.3148 158.589 84.9414 158.321 82.5618C158.06 79.2578 157.929 76.0913 157.792 72.7873C157.661 70.6763 157.53 68.559 157.399 66.5791C157.399 66.1856 157.399 65.7859 156.869 65.7859C156.477 65.7859 156.34 66.1794 156.34 66.5791C156.232 66.9199 156.188 67.2777 156.209 67.6346C156.24 67.8203 156.234 68.0103 156.191 68.1936C156.148 68.377 156.07 68.5499 155.96 68.7026H155.953ZM159.113 34.495L158.72 35.6816C158.589 35.8128 158.458 35.944 158.458 36.0751C158.434 36.482 158.346 36.8826 158.197 37.2618C158.119 37.5753 158.166 37.9066 158.328 38.1862C158.857 38.5796 157.798 38.4485 158.066 38.8482C158.334 39.2479 158.066 39.5102 157.804 39.9037C157.673 40.166 158.334 40.5658 157.673 40.6969C157.542 40.8281 157.673 41.359 157.804 41.6213C157.776 41.7103 157.722 41.7887 157.648 41.8461C157.387 41.8461 157.387 41.9773 157.387 42.377C157.558 42.7477 157.604 43.1644 157.517 43.5637C157.256 43.4325 157.517 43.0328 157.256 43.0328C156.994 43.6949 157.517 44.4881 157.256 45.1439C156.994 45.0127 157.387 44.613 156.994 44.613C156.863 45.4062 157.387 46.0682 156.994 46.8552C156.732 46.724 157.125 46.3243 156.863 46.1931C156.471 47.1175 156.994 48.0668 156.863 48.9662C156.471 48.7039 156.994 48.3042 156.602 48.173C156.34 49.3597 156.863 50.4152 156.602 51.6082C156.209 51.477 156.602 50.9461 156.34 50.815C156.471 51.3458 156.209 51.8705 156.34 52.5325C156.471 52.926 156.732 53.588 156.078 53.9878C155.816 54.1189 155.947 54.2501 155.947 54.5186C156.166 56.137 156.253 57.7703 156.209 59.4028V59.7963C156.209 60.0586 156.471 60.1897 156.739 60.1897C156.84 60.1825 156.936 60.1387 157.008 60.0664C157.08 59.9941 157.124 59.8982 157.131 59.7963V59.1654C157.109 54.2096 157.421 49.258 158.066 44.3444C158.636 39.6357 159.969 35.0517 162.01 30.7725C162.671 29.5858 163.194 28.2742 163.724 27.0751C162.396 28.1171 161.355 29.4795 160.695 31.0348C160.514 31.6913 160.248 32.3213 159.904 32.9086C159.649 33.4145 159.119 33.8079 159.119 34.47L159.113 34.495ZM156.346 54.3063C156.478 54.7823 156.478 55.2855 156.346 55.7615C156.247 55.5273 156.196 55.2753 156.197 55.0208C156.198 54.7663 156.251 54.5147 156.352 54.2813L156.346 54.3063ZM156.346 70.289C156.332 70.1897 156.286 70.0976 156.215 70.0267C156.194 69.7556 156.239 69.4833 156.346 69.2335V70.289ZM159.113 34.5012C159.505 34.6324 159.374 34.8947 159.244 35.0321C159.113 35.563 158.982 36.0876 158.714 36.9058C158.583 36.3749 158.845 36.1126 158.714 35.7191L159.113 34.5012ZM160.035 65.8046C159.898 67.8388 160.03 69.8821 160.427 71.8817C160.297 69.9018 160.558 67.9219 160.297 66.0732C160.303 65.9045 160.172 65.9045 160.041 65.7734L160.035 65.8046ZM160.166 59.9961C160.3 59.5204 160.3 59.0166 160.166 58.5409C160.04 59.0054 160.042 59.4953 160.172 59.9586L160.166 59.9961ZM163.593 118.106C163.2 118.368 163.331 118.637 163.462 119.162C163.724 118.768 163.462 118.368 163.593 118.106C163.161 116.772 162.852 115.4 162.671 114.009C162.295 112.09 161.81 110.195 161.219 108.332C161.219 108.594 161.088 108.725 161.219 108.725L163.194 117.837C163.207 118.044 163.468 117.937 163.599 118.044L163.593 118.106ZM165.699 23.6774C165.091 23.8809 164.532 24.2077 164.056 24.6376C163.58 25.0674 163.197 25.591 162.932 26.1757C163.462 25.7822 163.855 25.1202 164.384 24.989C165.313 24.6955 165.182 23.9023 165.705 23.6399L165.699 23.6774ZM163.069 35.7878C163.601 34.6492 163.998 33.4524 164.253 32.2215C163.531 33.2743 163.12 34.5108 163.069 35.7878V35.7878ZM163.599 65.636H163.337V71.3133H163.599C163.599 69.4708 163.73 67.6221 163.599 65.636ZM163.599 60.3521C163.992 58.2411 163.861 56.1238 163.992 54.0127C164.123 51.9017 164.253 49.7844 164.384 47.8045C164.515 45.6935 164.914 43.5762 165.045 41.4652C164.609 43.5574 164.301 45.6745 164.123 47.8045C163.861 49.7844 163.73 51.9017 163.593 54.0127C163.456 56.1238 163.207 58.2411 163.599 60.3584V60.3521ZM165.705 81.3501H165.836V80.2946C165.705 75.6728 165.574 71.1822 165.306 66.6915C165.328 66.3776 165.283 66.0627 165.176 65.7671C165.184 65.6959 165.177 65.6238 165.154 65.5557C165.131 65.4877 165.094 65.4256 165.045 65.3737C164.783 65.3737 164.783 65.636 164.783 65.7671C164.717 66.2039 164.717 66.6482 164.783 67.085C165.045 68.8025 164.914 70.5201 165.045 72.2377C165.313 75.2793 165.444 78.3147 165.705 81.3564V81.3501ZM165.045 56.917C164.644 58.0268 164.644 59.2423 165.045 60.3521V56.917ZM165.045 55.3306C165.045 55.5929 164.783 55.8615 165.045 56.1238C165.11 56.003 165.144 55.8682 165.145 55.7311C165.146 55.594 165.114 55.4586 165.051 55.3368L165.045 55.3306ZM167.419 32.0841C166.366 34.1952 165.967 36.5748 165.549 38.9544C166.104 36.581 166.995 34.47 167.419 32.0904V32.0841ZM165.836 85.0413H165.967V82.2683H165.836V85.0413ZM165.967 88.3453C165.894 88.5172 165.868 88.7054 165.891 88.8907C165.914 89.076 165.985 89.252 166.098 89.4008C166.235 88.8824 166.235 88.6201 165.973 88.3516L165.967 88.3453ZM170.055 29.9793C169.909 30.0043 169.771 30.0662 169.656 30.1591C169.54 30.2519 169.45 30.3728 169.394 30.5102C168.777 31.5479 168.29 32.6575 167.942 33.8142C167.811 34.7385 167.413 35.5317 167.413 36.5873C168.073 35.0009 168.466 33.5519 169.126 32.2153C169.519 31.4221 170.048 30.76 170.048 29.9731L170.31 29.7108C170.31 29.5796 170.441 29.4484 170.31 29.4484C170.179 29.3173 170.048 29.5796 170.048 29.7108L170.055 29.9793ZM181.651 28.2618C181.608 29.0187 181.697 29.7773 181.912 30.504C182.095 29.7492 182.002 28.9539 181.651 28.2618V28.2618Z" fill="#0B1019"/>
<path d="M201.809 103.678C201.279 103.285 201.017 103.81 200.886 103.941C200.494 104.472 200.095 104.996 199.304 104.865C198.12 105.658 196.537 104.996 195.216 105.527C194.961 105.634 194.684 105.679 194.409 105.656C194.133 105.633 193.867 105.544 193.633 105.396C192.842 104.734 191.92 105.003 191.141 104.603C190.219 105.134 189.689 104.209 189.166 103.678C187.452 102.361 186.399 100.506 185.477 98.5258C184.199 95.2623 183.361 91.843 182.984 88.3578C182.324 84.5292 182.455 80.7006 182.455 76.8657C182.498 72.8883 183.074 68.9348 184.168 65.1113C184.994 61.6234 186.822 58.4549 189.427 55.9989C190.023 55.3576 190.685 54.7818 191.403 54.2813C191.83 53.9532 192.342 53.7543 192.879 53.7078C193.415 53.6614 193.954 53.7693 194.431 54.019C194.823 54.2813 195.484 54.2813 195.484 54.1501C196.014 53.0946 196.668 53.4881 197.459 53.4881C197.721 53.4881 197.721 53.3569 197.852 53.2258C198.134 52.8801 198.495 52.6079 198.905 52.4326C199.1 52.3039 199.329 52.2353 199.562 52.2353C199.796 52.2353 200.024 52.3039 200.22 52.4326C200.852 52.7942 201.512 53.1034 202.195 53.3569C203.516 53.8878 204.301 54.8122 205.223 55.8552C206.806 57.5728 207.716 59.6838 208.65 61.9323C210.233 66.1606 210.52 70.3827 210.233 74.8733C209.871 80.621 208.989 86.3239 207.597 91.9116C206.97 94.1076 206.223 96.2677 205.36 98.3821C204.831 99.5688 204.046 100.762 203.385 101.948C203.123 102.342 203.123 103.004 202.463 103.266L201.672 103.66C201.802 103.529 201.933 103.529 201.933 103.397C202.064 103.397 202.195 103.266 202.064 103.135C201.933 103.135 201.802 103.135 201.802 103.266C201.769 103.29 201.742 103.321 201.724 103.357C201.706 103.393 201.696 103.433 201.697 103.474C201.698 103.515 201.708 103.554 201.728 103.59C201.747 103.626 201.775 103.656 201.809 103.678V103.678ZM184.679 80.0385H184.548V80.3009C184.583 80.3009 184.616 80.287 184.641 80.2624C184.665 80.2378 184.679 80.2045 184.679 80.1697V80.0385ZM188.499 99.3065C188.368 99.3065 188.237 99.1753 188.237 98.913C187.707 97.7263 187.315 96.4147 186.922 95.2156C186.446 93.6173 186.094 91.9843 185.869 90.3314C185.468 88.4166 185.204 86.4755 185.078 84.5229C184.907 85.2574 184.863 86.0157 184.947 86.7651C185.159 89.0745 185.511 91.3688 186 93.6354C186.491 96.2025 187.33 98.6905 188.493 101.03C189.022 102.086 189.944 102.486 190.599 103.141C190.73 103.273 190.86 103.273 191.128 103.01C190.337 101.955 189.807 100.631 189.022 99.4439C188.761 99.1816 188.63 99.1816 188.493 99.4439L188.499 99.3065ZM186.524 88.3453C185.703 80.159 186.551 71.891 189.016 64.0433C186.262 69.602 185.34 80.9567 186.524 88.3516V88.3453ZM186.524 90.7249C186.654 90.4575 186.722 90.1638 186.722 89.8661C186.722 89.5685 186.654 89.2747 186.524 89.0073C186.393 89.6694 186.654 90.194 186.524 90.7249C186.654 90.8561 186.785 90.9872 186.785 91.1184C187.178 93.0983 187.577 94.947 187.969 96.9269C187.973 97.1314 188.022 97.3325 188.114 97.5152C188.206 97.698 188.337 97.8577 188.499 97.9824C188.446 97.3948 188.314 96.817 188.106 96.2649L186.935 91.1246C186.943 91.0694 186.937 91.0131 186.919 90.9604C186.901 90.9077 186.871 90.8601 186.83 90.8216C186.79 90.7831 186.741 90.7548 186.688 90.7391C186.635 90.7233 186.578 90.7206 186.524 90.7312V90.7249ZM193.901 55.749C193.11 55.8802 192.449 56.1425 192.188 56.8046C191.948 57.4337 191.538 57.9832 191.004 58.391C189.449 59.6562 188.379 61.4215 187.975 63.3875L188.767 62.2008C189.427 61.1453 190.05 59.9586 191.135 59.2966C192.456 58.3722 192.848 56.9232 193.901 55.7303V55.749ZM188.499 99.4689C189.029 99.6 188.891 100.262 189.028 100.656C188.85 100.487 188.71 100.281 188.618 100.052C188.527 99.8233 188.486 99.5775 188.499 99.3315V99.4689ZM194.294 91.1496L193.901 88.77C193.757 89.5775 193.898 90.4103 194.3 91.1246L194.294 91.1496ZM195.216 59.0593C194.294 59.7213 193.901 60.3771 193.901 61.1703C194.389 60.489 194.831 59.7754 195.222 59.0343L195.216 59.0593ZM202.594 60.6457C202.167 60.8195 201.725 60.9512 201.273 61.0391C200.481 60.7768 200.351 61.3015 200.089 61.8323C200.062 62.1131 199.973 62.3843 199.827 62.6255C198.339 65.6449 197.232 68.8381 196.531 72.1315C195.429 77.5606 194.988 83.1034 195.216 88.6389C195.347 90.3564 195.609 91.9428 195.877 93.6354C196.052 94.6176 196.409 95.5582 196.93 96.4085C198.381 92.8422 199.304 89.1448 200.488 85.5785L199.696 90.3314C200.357 88.745 200.749 87.1649 201.279 85.5785C202.862 79.9011 204.046 74.2176 203.771 68.2779C203.639 65.6925 203.246 63.1271 202.6 60.6207L202.594 60.6457ZM198.12 59.9586C197.858 60.0898 197.727 60.3521 197.989 60.883C197.989 60.4895 198.381 60.221 198.12 59.9586ZM201.939 86.634C201.678 86.5028 201.678 86.634 201.678 86.7651C201.416 88.4827 200.886 90.0691 200.494 91.6493C199.833 94.0289 199.042 96.2711 198.388 98.6507C198.353 98.6507 198.32 98.6645 198.295 98.6891C198.271 98.7137 198.257 98.7471 198.257 98.7819C198.257 99.0442 198.257 99.1753 198.519 99.3127C198.587 99.3083 198.651 99.2793 198.699 99.231C198.747 99.1827 198.776 99.1185 198.78 99.0504C199.042 98.5195 199.173 98.1261 199.441 97.5952C199.702 96.802 199.572 95.8776 199.97 95.0969C200.829 92.69 201.489 90.2168 201.946 87.702C201.939 87.296 202.07 86.9026 201.939 86.634ZM203.915 89.1323C204.508 87.6953 204.907 86.1849 205.099 84.6416C204.504 86.0825 204.106 87.5972 203.915 89.1448V89.1323ZM205.89 90.1878C206.204 89.5727 206.384 88.8979 206.42 88.2079C206.061 88.8093 205.877 89.4996 205.89 90.2003V90.1878ZM206.943 89.5257C206.681 90.7124 206.551 91.9054 206.283 92.9609C206.812 92.2988 206.812 91.5056 207.074 90.5813C207.152 90.2316 207.108 89.8656 206.949 89.5445L206.943 89.5257Z" fill="#0B1019"/>
<path d="M227.63 34.8635C228.023 34.6011 228.023 33.9391 228.16 33.5456C228.297 33.1521 228.291 32.6213 228.69 32.3589C228.428 33.6768 228.297 35.0009 228.029 36.3187C227.238 40.6907 226.714 45.1689 226.16 49.6595L225.393 58.772C225.132 62.3383 224.864 65.7734 224.733 69.3397C224.471 72.7748 224.34 76.3411 224.34 79.9074C224.34 82.6805 224.471 85.4536 224.602 88.2267C224.598 91.2381 224.863 94.2438 225.393 97.208C225.604 98.7773 225.957 100.324 226.447 101.83C226.572 102.409 226.899 102.925 227.369 103.285C228.16 104.078 228.16 104.472 227.238 105.159C226.976 105.29 226.708 105.29 226.708 105.69C226.702 105.824 226.662 105.954 226.594 106.069C226.525 106.185 226.43 106.282 226.316 106.352C225.001 107.407 222.365 107.407 220.913 106.483C220.034 105.816 219.381 104.893 219.044 103.841C218.38 102.486 217.85 101.07 217.461 99.6126C216.242 94.6591 215.361 89.6279 214.825 84.5542C214.433 81.5188 214.165 78.4771 213.903 75.3106C213.378 69.5157 213.246 63.6916 213.511 57.8788C213.801 51.7564 214.549 45.6644 215.748 39.6539C216.801 34.9009 217.723 30.1417 219.175 25.5199C219.535 24.3455 219.976 23.1977 220.496 22.0848C221.07 20.9223 221.927 19.9235 222.988 19.1805C223.134 19.0415 223.319 18.95 223.518 18.9182C223.78 18.7871 223.91 18.9182 223.91 19.1805C223.818 19.3419 223.773 19.5257 223.78 19.7114C223.387 21.0293 223.387 21.0293 224.571 20.8981C224.77 20.8005 224.95 20.6671 225.101 20.5046L225.493 19.7114C225.755 19.4491 226.023 19.4491 226.154 19.7114C226.313 19.888 226.431 20.0979 226.499 20.3259C226.566 20.5539 226.583 20.7942 226.546 21.0293C226.568 21.6919 226.524 22.3552 226.415 23.0091C226.391 23.2363 226.427 23.4659 226.52 23.6745C226.613 23.883 226.76 24.063 226.945 24.1958C227.207 24.1958 227.338 23.9335 227.475 23.6649C227.794 23.01 228.241 22.4259 228.789 21.9474C228.821 21.8873 228.869 21.837 228.927 21.8019C228.985 21.7668 229.052 21.7483 229.12 21.7483C229.188 21.7483 229.254 21.7668 229.312 21.8019C229.371 21.837 229.418 21.8873 229.45 21.9474C229.843 22.6094 230.634 23.2652 230.241 24.1896C230.146 24.7005 229.967 25.1922 229.712 25.6448C228.789 28.0244 228.391 30.529 227.842 32.9086C227.619 33.5884 227.53 34.3056 227.581 35.0196C227.45 35.4131 227.188 35.8128 227.581 36.3375C227.665 35.8508 227.682 35.3547 227.63 34.8635V34.8635ZM215.642 69.7269C215.708 69.0248 215.708 68.318 215.642 67.6159C215.508 68.3153 215.508 69.0338 215.642 69.7332V69.7269ZM220.384 102.348C220.384 101.955 220.253 101.817 220.253 101.555C219.991 100.237 219.592 99.0567 219.331 97.7264C218.408 92.7298 217.748 87.6895 217.224 82.5368C216.832 77.915 216.564 73.4244 216.302 68.7963C216.302 67.6096 216.171 66.4167 216.171 65.23C215.956 65.8665 215.867 66.5391 215.91 67.2099C215.843 70.6477 215.974 74.0864 216.302 77.5091C216.564 79.8887 216.832 82.262 216.963 84.6416C217.492 89.9255 218.415 95.2093 219.455 100.493C219.54 101.203 219.868 101.861 220.384 102.354V102.348ZM221.568 95.6153C221.501 95.9198 221.501 96.2352 221.568 96.5397V95.6153C221.458 95.1384 221.414 94.6488 221.437 94.1601C221.366 94.0892 221.32 93.9971 221.306 93.8977C221.175 92.4425 220.913 90.9935 220.776 89.4071C220.514 86.3717 220.247 83.1989 220.116 80.1635C219.854 76.0725 219.586 72.1065 219.586 68.0156C219.63 66.6011 219.543 65.1855 219.324 63.7873C219.347 64.276 219.303 64.7656 219.193 65.2425C219.193 68.1468 219.324 71.1884 219.455 74.0927C219.717 78.1836 219.848 82.4119 220.116 86.5091C220.377 88.8887 220.645 91.2621 221.038 93.5105C221.038 93.904 221.038 94.1726 221.43 94.1726C221.291 94.3944 221.229 94.6563 221.254 94.9174C221.279 95.1784 221.389 95.4238 221.568 95.6153V95.6153ZM221.96 99.5751C221.975 100.553 222.248 101.51 222.751 102.348C222.692 101.38 222.424 100.436 221.966 99.5813L221.96 99.5751ZM222.091 71.5756C222.353 67.085 223.013 62.5943 223.013 57.9725C222.314 62.4737 222.008 67.0274 222.097 71.5819L222.091 71.5756ZM222.751 22.8592C222.882 22.7281 223.013 22.7281 223.013 22.5969C223.013 22.4658 223.013 22.3346 222.882 22.3346C222.833 22.3865 222.796 22.4487 222.773 22.5167C222.75 22.5847 222.743 22.6569 222.751 22.7281C222.627 22.7156 222.758 22.8468 222.758 22.8468L222.751 22.8592ZM226.309 102.76C226.179 102.098 225.917 101.574 225.78 101.043C225.061 97.9976 224.532 94.9104 224.197 91.7992C223.824 88.3792 223.647 84.9404 223.667 81.5001C223.537 80.176 223.537 78.8581 223.537 77.5403C223.798 75.1607 223.798 72.9185 223.929 70.67C224.06 67.8969 223.929 65.255 224.06 62.4819V61.1453C223.691 62.3872 223.512 63.6782 223.53 64.9739C223.4 66.6915 223.53 68.5402 223.4 70.2578C223.137 72.7579 223.006 75.27 223.007 77.7839C222.986 83.169 223.294 88.5504 223.929 93.8977C224.196 96.0761 224.591 98.2367 225.113 100.368C225.146 100.825 225.269 101.271 225.476 101.679C225.682 102.088 225.968 102.451 226.316 102.748L226.309 102.76ZM223.537 98.6507C223.275 99.1816 223.667 99.5751 223.667 99.9686C223.834 101.232 224.144 102.472 224.59 103.666C224.59 104.059 224.851 104.328 225.25 104.059C225.643 103.928 225.512 103.666 225.381 103.397C224.988 101.942 224.459 100.493 224.066 99.0255C224.072 98.7881 223.811 98.682 223.549 98.682L223.537 98.6507ZM223.699 51.9017C223.699 51.7706 223.699 51.7706 223.568 51.6394V52.0329C223.602 52.0329 223.636 52.0191 223.66 51.9945C223.685 51.9699 223.699 51.9365 223.699 51.9017V51.9017ZM224.322 33.9391C224.06 34.2014 223.929 34.3326 224.06 34.6011C224.322 34.47 224.322 34.2077 224.322 33.9391ZM224.714 32.7524C224.322 32.6213 224.453 32.8836 224.453 33.1459C224.322 33.2771 224.453 33.2771 224.453 33.2771C224.502 33.2252 224.539 33.163 224.562 33.095C224.584 33.027 224.592 32.9548 224.583 32.8836L224.714 32.7524V31.5657C224.653 31.9595 224.659 32.3608 224.733 32.7524H224.714ZM224.976 30.2541C224.976 30.2889 224.99 30.3223 225.014 30.3469C225.039 30.3715 225.072 30.3853 225.107 30.3853C225.238 30.3853 225.238 30.2541 225.238 30.123L225.107 29.9918C225.126 30.1105 224.995 30.1105 224.995 30.2417L224.976 30.2541ZM229.849 23.6524C229.319 24.1833 229.456 24.708 229.456 25.2389C229.632 25.0158 229.761 24.7586 229.832 24.4833C229.904 24.2081 229.918 23.9209 229.874 23.64L229.849 23.6524Z" fill="#0B1019"/>
<path d="M239.619 58.5096C239.672 57.8224 239.851 57.151 240.149 56.5298C240.541 57.0606 240.018 57.5853 240.411 58.1162C240.94 57.985 241.595 58.2473 241.993 57.4541C241.993 57.323 243.177 57.5853 243.445 57.8476C243.576 57.9788 243.445 58.2411 243.707 58.2411C244.76 58.3722 244.629 59.1654 244.76 59.9586C244.76 61.545 244.498 63.2626 244.367 64.9552C244.106 67.4535 243.838 70.1079 243.576 72.6124C243.184 75.7852 242.654 78.8206 242.261 81.9809C241.575 86.4364 241.354 90.9514 241.601 95.4529C241.626 97.19 241.847 98.9187 242.261 100.606C242.532 101.347 242.885 102.055 243.314 102.717C243.844 103.772 243.707 104.434 242.922 105.096C242.791 105.096 242.66 105.359 242.529 105.227C241.738 105.096 241.077 105.621 240.292 105.758C239.443 105.765 238.607 105.549 237.867 105.132C237.127 104.714 236.509 104.11 236.074 103.379C235.108 101.926 234.396 100.318 233.968 98.6257C233.092 95.6013 232.467 92.5096 232.098 89.3821C231.51 84.4311 231.245 79.4468 231.307 74.4611C231.259 70.1241 231.612 65.792 232.36 61.5201C232.705 59.9584 233.339 58.4754 234.229 57.1481C234.622 56.6172 235.021 56.2237 235.681 56.3549C235.681 57.1481 234.89 57.9413 235.943 58.5971C236.335 58.4659 236.335 58.0662 236.473 57.6727C236.61 57.2792 236.211 56.3549 237.264 56.7484C237.656 55.9551 238.055 56.3549 238.585 56.486C238.822 56.5367 239.032 56.6714 239.178 56.8654C239.323 57.0594 239.394 57.2995 239.376 57.5416C239.358 57.8476 239.227 58.2411 239.619 58.5096ZM243.57 42.0023C243.962 40.2847 245.022 38.8295 245.283 37.2493C244.492 38.3048 244.23 39.7476 242.909 40.6844C242.648 39.6289 243.439 38.8107 243.171 37.9113C242.778 38.7045 242.511 39.4977 242.249 40.1535C242.243 40.2212 242.214 40.2847 242.166 40.3327C242.118 40.3807 242.055 40.4102 241.987 40.4159C241.934 40.4231 241.88 40.4179 241.829 40.4007C241.778 40.3834 241.732 40.3547 241.694 40.3166C241.656 40.2785 241.627 40.2321 241.61 40.1811C241.593 40.1301 241.587 40.0758 241.595 40.0224C241.617 39.4849 241.705 38.9522 241.856 38.436C242.045 38.0499 242.154 37.6295 242.176 37.2002C242.199 36.7709 242.134 36.3415 241.987 35.9377C241.065 37.393 239.613 38.3173 239.75 40.166C239.75 41.2216 239.358 41.4839 238.298 41.7524C238.167 41.7524 238.037 41.8836 237.906 41.8836C236.591 42.0148 236.192 41.7524 236.323 40.4284C236.323 39.7663 235.93 39.3728 235.663 38.8419C235.365 39.2079 235.181 39.6536 235.135 40.1234C235.088 40.5932 235.181 41.0664 235.401 41.4839C235.008 41.615 234.871 41.2216 234.74 41.0904C234.211 40.8281 233.818 40.2972 233.288 40.0349C232.497 39.7726 232.366 39.2417 232.366 38.4485C232.334 37.4314 232.569 36.4238 233.045 35.5255C233.79 33.5656 234.91 31.7707 236.342 30.2416C236.848 29.6556 237.49 29.2031 238.211 28.9238C238.419 28.7744 238.664 28.6834 238.919 28.6604C239.174 28.6373 239.431 28.683 239.663 28.7926C240.156 29.0318 240.72 29.0785 241.246 28.9238C241.584 28.8072 241.942 28.7625 242.299 28.7926C244.287 29.3588 246.13 30.3496 247.701 31.6969C248.117 32.1017 248.429 32.6006 248.612 33.1516C248.796 33.7026 248.844 34.2897 248.754 34.8634C248.691 36.9986 247.902 39.048 246.517 40.6719C245.944 41.4714 245.022 41.8461 243.576 41.996L243.57 42.0023ZM233.426 82.2807V85.3161C233.295 84.2606 233.563 83.3363 233.426 82.2807ZM233.556 87.6958H233.669V86.5091H233.538L233.556 87.6958ZM233.949 80.5632C234.08 73.8303 234.08 67.2224 235.663 60.6207C235.403 60.879 235.198 61.188 235.062 61.5285C234.926 61.869 234.861 62.2339 234.871 62.6006C234.609 64.8428 234.342 67.2224 234.08 69.4708C233.731 72.8044 233.644 76.1603 233.818 79.5077C233.824 79.9011 233.669 80.3009 233.955 80.5694L233.949 80.5632ZM234.08 38.436C234.914 37.1303 235.545 35.7044 235.949 34.2076C235.008 35.5255 233.955 36.7122 234.086 38.4297L234.08 38.436ZM236.716 36.7184C236.585 36.7184 236.585 36.9807 236.585 36.9807C236.585 37.2431 236.323 37.3742 236.716 37.3742C236.783 37.2773 236.82 37.1623 236.821 37.0442C236.822 36.926 236.787 36.8103 236.722 36.7122L236.716 36.7184ZM238.298 99.4501C236.846 91.262 237.245 83.0739 237.376 75.017C237.069 76.8508 236.892 78.7042 236.846 80.5632C236.648 85.1885 236.779 89.822 237.239 94.4286C237.326 96.1485 237.686 97.8435 238.305 99.4501H238.298ZM238.298 65.3737C238.365 65.0691 238.365 64.7538 238.298 64.4493C238.234 64.5949 238.201 64.7527 238.202 64.9121C238.203 65.0716 238.238 65.2289 238.305 65.3737H238.298ZM240.672 72.3751C240.658 73.1292 240.57 73.8802 240.411 74.6173C239.864 78.5153 239.512 82.4383 239.358 86.3717C239.203 89.2318 239.246 92.0992 239.488 94.9532C239.75 96.4085 239.75 97.7263 240.28 99.0442C240.541 98.7819 240.411 98.5133 240.28 98.251C239.967 96.3738 239.79 94.4764 239.75 92.5736C239.552 88.6514 239.683 84.7194 240.143 80.8192C240.404 78.577 240.672 76.3286 240.803 73.949C240.94 73.4306 241.202 72.8997 240.672 72.3751V72.3751ZM243.57 60.6207C243.308 60.7518 243.308 60.883 243.308 61.0142C242.916 64.7116 242.648 68.4091 242.124 72.1065C241.732 74.7484 241.464 77.5215 241.071 80.2946C240.809 83.0677 240.542 85.8408 240.411 88.6139C240.411 90.9935 240.411 93.498 240.542 95.8776C240.672 96.4085 240.672 96.9331 240.803 97.464C240.768 97.7513 240.797 98.0428 240.889 98.3173C240.981 98.5918 241.132 98.8423 241.333 99.0504C241.226 98.8006 241.181 98.5284 241.202 98.2572C240.587 93.2099 240.631 88.1036 241.333 83.0677C241.725 80.0323 242.124 76.9906 242.386 73.9552L243.57 61.67C243.703 61.3333 243.705 60.9589 243.576 60.6207H243.57ZM240.934 71.8629C240.934 71.4694 241.327 70.9386 241.065 70.5451C240.895 70.9495 240.852 71.3958 240.94 71.8254L240.934 71.8629ZM241.196 69.883C241.269 69.5793 241.269 69.2624 241.196 68.9587C241.333 69.0711 240.94 69.4708 241.202 69.8643L241.196 69.883ZM241.588 64.2057C241.457 65.2612 241.457 66.3167 241.327 67.3785C241.616 66.3412 241.709 65.2586 241.601 64.187L241.588 64.2057ZM244.262 37.2431C244.654 36.581 244.922 36.1875 244.791 35.5255C244.66 35.2632 244.66 34.9946 244.262 35.132C244.131 35.132 244.131 35.3943 244.131 35.5255C244.1 36.0564 244.262 36.7122 244.262 37.2431Z" fill="#0B1019"/>
<path d="M268.476 103.678C267.946 103.285 267.684 103.81 267.554 103.941C267.161 104.472 266.762 104.996 265.971 104.865C264.787 105.658 263.204 104.996 261.883 105.527C261.628 105.634 261.351 105.679 261.076 105.656C260.8 105.633 260.534 105.544 260.3 105.396C259.509 104.734 258.587 105.003 257.808 104.603C256.886 105.134 256.356 104.209 255.833 103.678C254.119 102.361 253.066 100.506 252.144 98.5258C250.867 95.2623 250.028 91.843 249.651 88.3578C248.991 84.5292 249.122 80.7006 249.122 76.8657C249.165 72.8883 249.741 68.9348 250.835 65.1113C251.662 61.6226 253.493 58.4541 256.101 55.9989C256.696 55.3576 257.358 54.7818 258.076 54.2813C258.503 53.9532 259.016 53.7543 259.552 53.7078C260.088 53.6614 260.627 53.7693 261.104 54.019C261.497 54.2813 262.157 54.2813 262.157 54.1501C262.687 53.0946 263.341 53.4881 264.133 53.4881C264.394 53.4881 264.394 53.3569 264.525 53.2258C264.807 52.8801 265.168 52.6079 265.578 52.4326C265.773 52.3039 266.002 52.2353 266.236 52.2353C266.469 52.2353 266.698 52.3039 266.893 52.4326C267.525 52.7942 268.186 53.1034 268.868 53.3569C270.189 53.8878 270.974 54.8122 271.897 55.8552C273.479 57.5728 274.389 59.6838 275.324 61.9323C276.906 66.1606 277.193 70.3827 276.907 74.8733C276.544 80.621 275.662 86.3239 274.271 91.9116C273.643 94.1076 272.896 96.2677 272.034 98.3821C271.504 99.5688 270.719 100.762 270.058 101.948C269.797 102.342 269.797 103.004 269.136 103.266L268.345 103.66C268.476 103.529 268.607 103.529 268.607 103.397C268.737 103.397 268.868 103.266 268.737 103.135C268.607 103.135 268.476 103.135 268.476 103.266C268.442 103.289 268.415 103.32 268.396 103.356C268.377 103.392 268.367 103.432 268.367 103.472C268.367 103.513 268.377 103.553 268.396 103.589C268.415 103.625 268.442 103.656 268.476 103.678V103.678ZM251.346 80.0385H251.215V80.3009C251.25 80.3009 251.283 80.287 251.308 80.2624C251.332 80.2378 251.346 80.2045 251.346 80.1697V80.0385ZM255.166 99.3065C255.035 99.3065 254.904 99.1753 254.904 98.913C254.375 97.7263 253.982 96.4147 253.589 95.2156C253.113 93.6173 252.761 91.9843 252.536 90.3314C252.135 88.4166 251.871 86.4755 251.745 84.5229C251.574 85.2574 251.53 86.0157 251.614 86.7651C251.826 89.0745 252.178 91.3688 252.667 93.6354C253.159 96.2025 253.997 98.6905 255.16 101.03C255.689 102.086 256.612 102.486 257.266 103.141C257.397 103.273 257.528 103.273 257.796 103.01C257.004 101.955 256.475 100.631 255.689 99.4439C255.428 99.1816 255.297 99.1816 255.16 99.4439L255.166 99.3065ZM253.191 88.3453C252.37 80.159 253.218 71.891 255.683 64.0433C252.929 69.602 252.007 80.9567 253.191 88.3516V88.3453ZM253.191 90.7249C253.321 90.4575 253.389 90.1638 253.389 89.8661C253.389 89.5685 253.321 89.2747 253.191 89.0073C253.06 89.6694 253.322 90.194 253.191 90.7249C253.322 90.8561 253.452 90.9872 253.452 91.1184C253.845 93.0983 254.244 94.947 254.636 96.9269C254.64 97.1314 254.689 97.3325 254.781 97.5152C254.873 97.698 255.004 97.8577 255.166 97.9824C255.113 97.3948 254.981 96.817 254.773 96.2649L253.608 91.1246C253.616 91.0688 253.611 91.0118 253.593 90.9585C253.574 90.9052 253.543 90.8572 253.502 90.8185C253.461 90.7799 253.411 90.7517 253.357 90.7365C253.303 90.7213 253.246 90.7195 253.191 90.7312V90.7249ZM260.568 55.749C259.777 55.8802 259.117 56.1425 258.855 56.8046C258.616 57.4337 258.205 57.9832 257.671 58.391C256.116 59.6562 255.046 61.4215 254.643 63.3875L255.434 62.2008C256.101 61.1453 256.724 59.9586 257.802 59.2966C259.123 58.3722 259.515 56.9232 260.568 55.7303V55.749ZM255.166 99.4689C255.696 99.6 255.559 100.262 255.696 100.656C255.517 100.487 255.376 100.281 255.285 100.052C255.193 99.8235 255.153 99.5775 255.166 99.3315V99.4689ZM260.961 91.1496L260.568 88.77C260.424 89.5775 260.565 90.4103 260.967 91.1246L260.961 91.1496ZM261.883 59.0593C260.961 59.7213 260.568 60.3771 260.568 61.1703C261.056 60.489 261.498 59.7754 261.889 59.0343L261.883 59.0593ZM269.261 60.6457C268.836 60.819 268.396 60.9508 267.946 61.0391C267.155 60.7768 267.024 61.3015 266.762 61.8323C266.736 62.1131 266.646 62.3843 266.5 62.6255C265.013 65.6449 263.905 68.8381 263.204 72.1315C262.103 77.5606 261.661 83.1034 261.889 88.6389C262.02 90.3564 262.282 91.9428 262.55 93.6354C262.725 94.6176 263.082 95.5582 263.603 96.4085C265.055 92.8422 265.977 89.1448 267.161 85.5785L266.37 90.3314C267.03 88.745 267.423 87.1649 267.952 85.5785C269.535 79.9011 270.719 74.2176 270.445 68.2779C270.31 65.6923 269.915 63.1269 269.267 60.6207L269.261 60.6457ZM264.787 59.9586C264.525 60.0898 264.394 60.3521 264.656 60.883C264.656 60.4895 265.049 60.221 264.787 59.9586ZM268.607 86.634C268.345 86.5028 268.345 86.634 268.345 86.7651C268.083 88.4827 267.554 90.0691 267.161 91.6493C266.5 94.0289 265.709 96.2711 265.055 98.6507C265.02 98.6507 264.987 98.6645 264.962 98.6891C264.938 98.7137 264.924 98.7471 264.924 98.7819C264.924 99.0442 264.924 99.1753 265.186 99.3127C265.254 99.3083 265.318 99.2793 265.366 99.231C265.414 99.1827 265.443 99.1185 265.447 99.0504C265.709 98.5195 265.84 98.1261 266.108 97.5952C266.37 96.802 266.239 95.8776 266.638 95.0969C267.496 92.69 268.156 90.2168 268.613 87.702C268.607 87.296 268.737 86.9026 268.607 86.634ZM270.582 89.1323C271.176 87.6953 271.574 86.1849 271.766 84.6416C271.171 86.0825 270.773 87.5972 270.582 89.1448V89.1323ZM272.557 90.1878C272.871 89.5727 273.052 88.8979 273.087 88.2079C272.73 88.81 272.549 89.5002 272.563 90.2003L272.557 90.1878ZM273.61 89.5257C273.349 90.7124 273.218 91.9054 272.95 92.9609C273.479 92.2988 273.479 91.5056 273.741 90.5813C273.819 90.2316 273.775 89.8656 273.616 89.5445L273.61 89.5257Z" fill="#0B1019"/>
</g>
<defs>
<clipPath id="clip0_41_162">
<rect width="277" height="145" fill="white"/>
</clipPath>
</defs>
</svg>
